<svg id="a5dbba96-00b2-4424-98bc-4bb03f148286" data-name="Layer 1" xmlns="http://www.w3.org/2000/svg" xmlns:xlink="http://www.w3.org/1999/xlink" width="40.17" height="40.17" viewBox="0 0 40.17 40.17">
  <defs>
    <linearGradient id="af790175-aa8d-4f3e-a70e-5fed4cb9fe92" x1="11.9" y1="37.64" x2="11.9" y2="36.21" gradientTransform="matrix(28, 0, 0, -28, -308, 1058)" gradientUnits="userSpaceOnUse">
      <stop offset="0" stop-color="#218cff"/>
      <stop offset="1" stop-color="#218cff"/>
    </linearGradient>
    <linearGradient id="b9fb2ef2-64e4-4468-b1e5-4e9c40f98611" x1="43.21" y1="-3.2" x2="43.21" y2="-4.64" gradientTransform="matrix(7.01, 0, 0, -7, -274.01, 0.21)" xlink:href="#af790175-aa8d-4f3e-a70e-5fed4cb9fe92"/>
    <linearGradient id="e04e7d53-1a4b-4f16-8022-5f4520ad43f5" x1="42.9" y1="-3.2" x2="42.9" y2="-4.64" gradientTransform="matrix(7.01, 0, 0, -7, -279.02, 0.21)" xlink:href="#af790175-aa8d-4f3e-a70e-5fed4cb9fe92"/>
    <linearGradient id="b4af49e8-56a6-4f58-ac0b-5861f8cfaa18" x1="43.21" y1="-2.89" x2="43.21" y2="-4.33" gradientTransform="matrix(7.01, 0, 0, -7, -274.02, -4.79)" xlink:href="#af790175-aa8d-4f3e-a70e-5fed4cb9fe92"/>
    <linearGradient id="bad47da5-1900-44c2-8aca-2ae44600f963" x1="42.9" y1="-2.89" x2="42.9" y2="-4.33" gradientTransform="matrix(7.01, 0, 0, -7, -279.01, -4.79)" xlink:href="#af790175-aa8d-4f3e-a70e-5fed4cb9fe92"/>
  </defs>
  <!-- <path id="be49b677-223f-4963-8802-2a3812c9aecb" data-name="Path 528" d="M25.32,44.17A20.09,20.09,0,1,1,45.41,24.08,20.08,20.08,0,0,1,25.32,44.17Zm0-37.3A17.22,17.22,0,1,0,42.54,24.08,17.22,17.22,0,0,0,25.32,6.87Z" transform="translate(-5.24 -4)" fill="url(#af790175-aa8d-4f3e-a70e-5fed4cb9fe92)"/> -->
  <path id="e241ea6d-cc20-47e4-9ea1-8c945ae0a27f" data-name="Path 529" d="M32.5,32.69a1.46,1.46,0,0,1-1-.41L24.3,25.1a1.44,1.44,0,0,1,2-2l7.17,7.17a1.43,1.43,0,0,1,0,2A1.45,1.45,0,0,1,32.5,32.69Z" transform="translate(-5.24 -4)" fill="url(#b9fb2ef2-64e4-4468-b1e5-4e9c40f98611)"/>
  <path id="e402fa62-3d5e-4b17-8da5-c1f5ff0d490f" data-name="Path 530" d="M18.15,32.69a1.44,1.44,0,0,1-1-2.45l7.17-7.17a1.44,1.44,0,0,1,2,2h0l-7.17,7.18A1.48,1.48,0,0,1,18.15,32.69Z" transform="translate(-5.24 -4)" fill="url(#e04e7d53-1a4b-4f16-8022-5f4520ad43f5)"/>
  <path id="ba30037a-36c5-4e08-a8b8-5defe670d767" data-name="Path 531" d="M25.32,25.52a1.44,1.44,0,0,1-1-2.45l7.18-7.18a1.44,1.44,0,0,1,2,2L26.34,25.1A1.45,1.45,0,0,1,25.32,25.52Z" transform="translate(-5.24 -4)" fill="url(#b4af49e8-56a6-4f58-ac0b-5861f8cfaa18)"/>
  <path id="ab79d9f3-7453-4749-ba1b-bc93f29bab43" data-name="Path 532" d="M25.32,25.52a1.46,1.46,0,0,1-1-.42l-7.17-7.17a1.44,1.44,0,1,1,2-2l7.17,7.18a1.43,1.43,0,0,1-1,2.45Z" transform="translate(-5.24 -4)" fill="url(#bad47da5-1900-44c2-8aca-2ae44600f963)"/>
</svg>
