<svg id="b7517a08-d8a8-4c22-893c-d6da77c5f521" data-name="Layer 1" xmlns="http://www.w3.org/2000/svg" width="40.2" height="29.02" viewBox="0 0 40.2 29.02">
  <g id="add6403f-17af-4a78-a61f-902554cca045" data-name="offer 1">
    <path id="be03fae0-b428-4d7f-8084-c5d137fd6fa3" data-name="Path 523" d="M45,28.47A3.74,3.74,0,0,0,40.1,27l-5.79,2.74a4.69,4.69,0,0,0-4-2.48l-5.35-.15a5.62,5.62,0,0,1-2.43-.63L22,26.17a9.58,9.58,0,0,0-8.88,0l0-1.23a.74.74,0,0,0-.72-.76L6.54,24a.74.74,0,0,0-.76.71h0L5.42,37.61a.76.76,0,0,0,.72.76l5.86.16h0a.75.75,0,0,0,.74-.72v-.62l1.53-.81a2.59,2.59,0,0,1,2-.21l9.09,2.55h0a9.47,9.47,0,0,0,2,.21,9.89,9.89,0,0,0,4.12-.9l.1,0,13.18-8.53A.75.75,0,0,0,45,28.47ZM6.93,36.91l.31-11.38,4.38.12L11.31,37Zm23.92-.19a8.45,8.45,0,0,1-5.13.57l-9.07-2.56a4.12,4.12,0,0,0-3,.34l-.78.42L13,27.92a8.13,8.13,0,0,1,8.26-.44l.54.28a7.14,7.14,0,0,0,3.07.79l5.34.15a3.24,3.24,0,0,1,3.09,2.58l-8-.22a.72.72,0,0,0-.73.74.74.74,0,0,0,.69.74l8.79.24h0a.73.73,0,0,0,.73-.72,4.44,4.44,0,0,0-.07-1l5.94-2.8h0a2.23,2.23,0,0,1,2.55.36Z" transform="translate(-5.17 -10.16)" stroke="#000" stroke-width="0.5"/>
  </g>
  <g id="e8bb221f-192f-49eb-bf98-26e3dc9f49f1" data-name="CRO" style="isolation: isolate">
    <g style="isolation: isolate">
      <path d="M10.87,15a4.76,4.76,0,0,1,4.82-4.82,4.83,4.83,0,0,1,3.15,1.15l-1.1,1.45a3.34,3.34,0,0,0-2-.76,3,3,0,0,0,0,6,3.07,3.07,0,0,0,2.07-.78l1.08,1.47a4.83,4.83,0,0,1-3.15,1.15A4.78,4.78,0,0,1,10.87,15Z" transform="translate(-5.17 -10.16)"/>
      <path d="M20.24,10.34h3.87a3,3,0,0,1,3.22,3.1,2.77,2.77,0,0,1-1.5,2.6l1.77,3.6H25.44L24,16.53l-.41,0H22.15v3.09H20.24Zm3.7,4.53a1.38,1.38,0,0,0,1.45-1.42A1.33,1.33,0,0,0,24,12.07H22.15v2.8Z" transform="translate(-5.17 -10.16)"/>
      <path d="M28.3,15a4.82,4.82,0,1,1,4.82,4.82A4.76,4.76,0,0,1,28.3,15Zm4.82,3a3,3,0,1,0-2.88-3A2.92,2.92,0,0,0,33.12,18Z" transform="translate(-5.17 -10.16)"/>
    </g>
  </g>
</svg>
