<svg xmlns="http://www.w3.org/2000/svg" width="40" height="40" viewBox="0 0 40 40"><g fill="none" fill-rule="evenodd"><path fill="#000" fill-rule="nonzero" d="M32.0756252,37.7293442 L31.9239323,37.6096433 L31.306124,37.0814548 L30.6883157,37.6096433 C29.9165475,38.2669583 28.8571615,38.38413 27.9828529,37.9611586 L27.981,38.0011622 L27.9814658,37.980952 C27.8251619,37.9086294 27.6766287,37.8202846 27.5381227,37.7173661 L27.4030427,37.6096433 L26.7852344,37.0822431 L26.1674261,37.6096433 C25.2777781,38.3677488 24.0055452,38.407649 23.0756252,37.7293442 L22.9239323,37.6096433 L22.306124,37.0814548 L21.6883157,37.6096433 C20.9165475,38.2669583 19.8571615,38.38413 18.9828529,37.9611586 L18.981,38.0011622 L18.9814658,37.980952 C18.8251619,37.9086294 18.6766287,37.8202846 18.5381227,37.7173661 L18.4030427,37.6096433 L17.7852344,37.0822431 L17.1674261,37.6096433 C16.2777781,38.3677488 15.0055452,38.407649 14.0756252,37.7293442 L13.9239323,37.6096433 L13.306124,37.0814548 L12.6883157,37.6096433 C11.9165475,38.2669583 10.8571615,38.38413 9.98285286,37.9611586 L9.981,38.0011622 L9.98146575,37.980952 C9.82516193,37.9086294 9.67662872,37.8202846 9.53812272,37.7173661 L9.40304271,37.6096433 L8.78523438,37.0822431 L8.16742606,37.6096433 C7.27777812,38.3677488 6.00554521,38.407649 5.07562516,37.7293442 L4.92393235,37.6096433 L4.30612403,37.0814548 L3.6883157,37.6096433 C2.79856081,38.3674475 1.52652491,38.407332 0.596529917,37.7292966 L0.444821994,37.6096433 L3.55271368e-15,37.2304513 L3.55271368e-15,36.6250053 L0.736736428,37.2556782 C1.46186687,37.8752576 2.49827258,37.9117034 3.26002364,37.3650157 L3.39949031,37.2556782 L4.31539115,36.4791622 L5.22665843,37.2556782 C5.95178887,37.8752576 6.98819458,37.9117034 7.74994564,37.3650157 L7.88941231,37.2556782 L8.79990733,36.4791622 L9,36.6501622 L9,36.6250053 L9.73673643,37.2556782 C10.4618669,37.8752576 11.4982726,37.9117034 12.2600236,37.3650157 L12.3994903,37.2556782 L13.3153911,36.4791622 L14.2266584,37.2556782 C14.9517889,37.8752576 15.9881946,37.9117034 16.7499456,37.3650157 L16.8894123,37.2556782 L17.7999073,36.4791622 L18,36.6501622 L18,36.6250053 L18.7367364,37.2556782 C19.4618669,37.8752576 20.4982726,37.9117034 21.2600236,37.3650157 L21.3994903,37.2556782 L22.3153911,36.4791622 L23.2266584,37.2556782 C23.9517889,37.8752576 24.9881946,37.9117034 25.7499456,37.3650157 L25.8894123,37.2556782 L26.7999073,36.4791622 L27,36.6501622 L27,36.6250053 L27.7367364,37.2556782 C28.4618669,37.8752576 29.4982726,37.9117034 30.2600236,37.3650157 L30.3994903,37.2556782 L31.3153911,36.4791622 L31.499,36.6361622 L31.5,36.6250053 L32.2367364,37.2556782 C32.5993016,37.5654679 33.0396857,37.7294742 33.4846473,37.7476971 L33.6415014,37.7476971 C34.0308428,37.731752 34.4166796,37.6041916 34.7499456,37.3650157 L34.8894123,37.2556782 L35.7999073,36.4791622 L35.807,36.4861622 L35.8153911,36.4791622 L36.7266584,37.2556782 C37.4971095,37.9139813 38.6189612,37.9139813 39.3894123,37.2556782 L39.3894123,37.2556782 L40.2999073,36.4791622 L40.2852344,37.0822431 L39.6674261,37.6096433 C38.9019287,38.2619549 37.8531755,38.3825263 36.9829658,37.9713575 L36.981,38.0331622 L36.9814658,37.980952 C36.8251619,37.9086294 36.6766287,37.8202846 36.5381227,37.7173661 L36.4030427,37.6096433 L35.795,37.0901622 L35.1883157,37.6096433 C34.7434383,37.9885454 34.2029906,38.1879676 33.6575128,38.2079098 L33.4547308,38.2081476 C32.9698381,38.1904142 32.488923,38.030813 32.0756252,37.7293442 Z M32.0756252,33.7293442 L31.9239323,33.6096433 L31.306124,33.0814548 L30.6883157,33.6096433 C29.9165475,34.2669583 28.8571615,34.38413 27.9828529,33.9611586 L27.981,34.0011622 L27.9814658,33.980952 C27.8251619,33.9086294 27.6766287,33.8202846 27.5381227,33.7173661 L27.4030427,33.6096433 L26.7852344,33.0822431 L26.1674261,33.6096433 C25.2777781,34.3677488 24.0055452,34.407649 23.0756252,33.7293442 L22.9239323,33.6096433 L22.306124,33.0814548 L21.6883157,33.6096433 C20.9165475,34.2669583 19.8571615,34.38413 18.9828529,33.9611586 L18.981,34.0011622 L18.9814658,33.980952 C18.8251619,33.9086294 18.6766287,33.8202846 18.5381227,33.7173661 L18.4030427,33.6096433 L17.7852344,33.0822431 L17.1674261,33.6096433 C16.2777781,34.3677488 15.0055452,34.407649 14.0756252,33.7293442 L13.9239323,33.6096433 L13.306124,33.0814548 L12.6883157,33.6096433 C11.9165475,34.2669583 10.8571615,34.38413 9.98285286,33.9611586 L9.981,34.0011622 L9.98146575,33.980952 C9.82516193,33.9086294 9.67662872,33.8202846 9.53812272,33.7173661 L9.40304271,33.6096433 L8.78523438,33.0822431 L8.16742606,33.6096433 C7.27777812,34.3677488 6.00554521,34.407649 5.07562516,33.7293442 L4.92393235,33.6096433 L4.30612403,33.0814548 L3.6883157,33.6096433 C2.79856081,34.3674475 1.52652491,34.407332 0.596529917,33.7292966 L0.444821994,33.6096433 L3.55271368e-15,33.2304513 L3.55271368e-15,32.6250053 L0.736736428,33.2556782 C1.46186687,33.8752576 2.49827258,33.9117034 3.26002364,33.3650157 L3.39949031,33.2556782 L4.31539115,32.4791622 L5.22665843,33.2556782 C5.95178887,33.8752576 6.98819458,33.9117034 7.74994564,33.3650157 L7.88941231,33.2556782 L8.79990733,32.4791622 L9,32.6501622 L9,32.6250053 L9.73673643,33.2556782 C10.4618669,33.8752576 11.4982726,33.9117034 12.2600236,33.3650157 L12.3994903,33.2556782 L13.3153911,32.4791622 L14.2266584,33.2556782 C14.9517889,33.8752576 15.9881946,33.9117034 16.7499456,33.3650157 L16.8894123,33.2556782 L17.7999073,32.4791622 L18,32.6501622 L18,32.6250053 L18.7367364,33.2556782 C19.4618669,33.8752576 20.4982726,33.9117034 21.2600236,33.3650157 L21.3994903,33.2556782 L22.3153911,32.4791622 L23.2266584,33.2556782 C23.9517889,33.8752576 24.9881946,33.9117034 25.7499456,33.3650157 L25.8894123,33.2556782 L26.7999073,32.4791622 L27,32.6501622 L27,32.6250053 L27.7367364,33.2556782 C28.4618669,33.8752576 29.4982726,33.9117034 30.2600236,33.3650157 L30.3994903,33.2556782 L31.3153911,32.4791622 L31.499,32.6361622 L31.5,32.6250053 L32.2367364,33.2556782 C32.5993016,33.5654679 33.0396857,33.7294742 33.4846473,33.7476971 L33.6415014,33.7476971 C34.0308428,33.731752 34.4166796,33.6041916 34.7499456,33.3650157 L34.8894123,33.2556782 L35.7999073,32.4791622 L35.807,32.4861622 L35.8153911,32.4791622 L36.7266584,33.2556782 C37.4971095,33.9139813 38.6189612,33.9139813 39.3894123,33.2556782 L39.3894123,33.2556782 L40.2999073,32.4791622 L40.2852344,33.0822431 L39.6674261,33.6096433 C38.9019287,34.2619549 37.8531755,34.3825263 36.9829658,33.9713575 L36.981,34.0331622 L36.9814658,33.980952 C36.8251619,33.9086294 36.6766287,33.8202846 36.5381227,33.7173661 L36.4030427,33.6096433 L35.795,33.0901622 L35.1883157,33.6096433 C34.7434383,33.9885454 34.2029906,34.1879676 33.6575128,34.2079098 L33.4547308,34.2081476 C32.9698381,34.1904142 32.488923,34.030813 32.0756252,33.7293442 Z M32.0756252,30.250182 L31.9239323,30.1304811 L31.306124,29.6022926 L30.6883157,30.1304811 C29.9165475,30.7877961 28.8571615,30.9049678 27.9828529,30.4819963 L27.981,30.522 L27.9814658,30.5017897 C27.8251619,30.4294672 27.6766287,30.3411224 27.5381227,30.2382039 L27.4030427,30.1304811 L26.7852344,29.6030809 L26.1674261,30.1304811 C25.2777781,30.8885865 24.0055452,30.9284868 23.0756252,30.250182 L22.9239323,30.1304811 L22.306124,29.6022926 L21.6883157,30.1304811 C20.9165475,30.7877961 19.8571615,30.9049678 18.9828529,30.4819963 L18.981,30.522 L18.9814658,30.5017897 C18.8251619,30.4294672 18.6766287,30.3411224 18.5381227,30.2382039 L18.4030427,30.1304811 L17.7852344,29.6030809 L17.1674261,30.1304811 C16.2777781,30.8885865 15.0055452,30.9284868 14.0756252,30.250182 L13.9239323,30.1304811 L13.306124,29.6022926 L12.6883157,30.1304811 C11.9165475,30.7877961 10.8571615,30.9049678 9.98285286,30.4819963 L9.981,30.522 L9.98146575,30.5017897 C9.82516193,30.4294672 9.67662872,30.3411224 9.53812272,30.2382039 L9.40304271,30.1304811 L8.78523438,29.6030809 L8.16742606,30.1304811 C7.27777812,30.8885865 6.00554521,30.9284868 5.07562516,30.250182 L4.92393235,30.1304811 L4.30612403,29.6022926 L3.6883157,30.1304811 C2.79856081,30.8882853 1.52652491,30.9281698 0.596529917,30.2501344 L0.444821994,30.1304811 L3.55271368e-15,29.751289 L3.55271368e-15,29.1458431 L0.736736428,29.776516 C1.46186687,30.3960953 2.49827258,30.4325412 3.26002364,29.8858535 L3.39949031,29.776516 L4.31539115,29 L5.22665843,29.776516 C5.95178887,30.3960953 6.98819458,30.4325412 7.74994564,29.8858535 L7.88941231,29.776516 L8.79990733,29 L9,29.171 L9,29.1458431 L9.73673643,29.776516 C10.4618669,30.3960953 11.4982726,30.4325412 12.2600236,29.8858535 L12.3994903,29.776516 L13.3153911,29 L14.2266584,29.776516 C14.9517889,30.3960953 15.9881946,30.4325412 16.7499456,29.8858535 L16.8894123,29.776516 L17.7999073,29 L18,29.171 L18,29.1458431 L18.7367364,29.776516 C19.4618669,30.3960953 20.4982726,30.4325412 21.2600236,29.8858535 L21.3994903,29.776516 L22.3153911,29 L23.2266584,29.776516 C23.9517889,30.3960953 24.9881946,30.4325412 25.7499456,29.8858535 L25.8894123,29.776516 L26.7999073,29 L27,29.171 L27,29.1458431 L27.7367364,29.776516 C28.4618669,30.3960953 29.4982726,30.4325412 30.2600236,29.8858535 L30.3994903,29.776516 L31.3153911,29 L31.499,29.157 L31.5,29.1458431 L32.2367364,29.776516 C32.5993016,30.0863056 33.0396857,30.250312 33.4846473,30.2685349 L33.6415014,30.2685349 C34.0308428,30.2525898 34.4166796,30.1250294 34.7499456,29.8858535 L34.8894123,29.776516 L35.7999073,29 L35.807,29.007 L35.8153911,29 L36.7266584,29.776516 C37.4971095,30.434819 38.6189612,30.434819 39.3894123,29.776516 L39.3894123,29.776516 L40.2999073,29 L40.2852344,29.6030809 L39.6674261,30.1304811 C38.9019287,30.7827927 37.8531755,30.9033641 36.9829658,30.4921953 L36.981,30.554 L36.9814658,30.5017897 C36.8251619,30.4294672 36.6766287,30.3411224 36.5381227,30.2382039 L36.4030427,30.1304811 L35.795,29.611 L35.1883157,30.1304811 C34.7434383,30.5093832 34.2029906,30.7088054 33.6575128,30.7287476 L33.4547308,30.7289854 C32.9698381,30.7112519 32.488923,30.5516508 32.0756252,30.250182 Z M32.0756252,26.7293442 L31.9239323,26.6096433 L31.306124,26.0814548 L30.6883157,26.6096433 C29.9165475,27.2669583 28.8571615,27.38413 27.9828529,26.9611586 L27.981,27.0011622 L27.9814658,26.980952 C27.8251619,26.9086294 27.6766287,26.8202846 27.5381227,26.7173661 L27.4030427,26.6096433 L26.7852344,26.0822431 L26.1674261,26.6096433 C25.2777781,27.3677488 24.0055452,27.407649 23.0756252,26.7293442 L22.9239323,26.6096433 L22.306124,26.0814548 L21.6883157,26.6096433 C20.9165475,27.2669583 19.8571615,27.38413 18.9828529,26.9611586 L18.981,27.0011622 L18.9814658,26.980952 C18.8251619,26.9086294 18.6766287,26.8202846 18.5381227,26.7173661 L18.4030427,26.6096433 L17.7852344,26.0822431 L17.1674261,26.6096433 C16.2777781,27.3677488 15.0055452,27.407649 14.0756252,26.7293442 L13.9239323,26.6096433 L13.306124,26.0814548 L12.6883157,26.6096433 C11.9165475,27.2669583 10.8571615,27.38413 9.98285286,26.9611586 L9.981,27.0011622 L9.98146575,26.980952 C9.82516193,26.9086294 9.67662872,26.8202846 9.53812272,26.7173661 L9.40304271,26.6096433 L8.78523438,26.0822431 L8.16742606,26.6096433 C7.27777812,27.3677488 6.00554521,27.407649 5.07562516,26.7293442 L4.92393235,26.6096433 L4.30612403,26.0814548 L3.6883157,26.6096433 C2.79856081,27.3674475 1.52652491,27.407332 0.596529917,26.7292966 L0.444821994,26.6096433 L3.55271368e-15,26.2304513 L3.55271368e-15,25.6250053 L0.736736428,26.2556782 C1.46186687,26.8752576 2.49827258,26.9117034 3.26002364,26.3650157 L3.39949031,26.2556782 L4.31539115,25.4791622 L5.22665843,26.2556782 C5.95178887,26.8752576 6.98819458,26.9117034 7.74994564,26.3650157 L7.88941231,26.2556782 L8.79990733,25.4791622 L9,25.6501622 L9,25.6250053 L9.73673643,26.2556782 C10.4618669,26.8752576 11.4982726,26.9117034 12.2600236,26.3650157 L12.3994903,26.2556782 L13.3153911,25.4791622 L14.2266584,26.2556782 C14.9517889,26.8752576 15.9881946,26.9117034 16.7499456,26.3650157 L16.8894123,26.2556782 L17.7999073,25.4791622 L18,25.6501622 L18,25.6250053 L18.7367364,26.2556782 C19.4618669,26.8752576 20.4982726,26.9117034 21.2600236,26.3650157 L21.3994903,26.2556782 L22.3153911,25.4791622 L23.2266584,26.2556782 C23.9517889,26.8752576 24.9881946,26.9117034 25.7499456,26.3650157 L25.8894123,26.2556782 L26.7999073,25.4791622 L27,25.6501622 L27,25.6250053 L27.7367364,26.2556782 C28.4618669,26.8752576 29.4982726,26.9117034 30.2600236,26.3650157 L30.3994903,26.2556782 L31.3153911,25.4791622 L31.499,25.6361622 L31.5,25.6250053 L32.2367364,26.2556782 C32.5993016,26.5654679 33.0396857,26.7294742 33.4846473,26.7476971 L33.6415014,26.7476971 C34.0308428,26.731752 34.4166796,26.6041916 34.7499456,26.3650157 L34.8894123,26.2556782 L35.7999073,25.4791622 L35.807,25.4861622 L35.8153911,25.4791622 L36.7266584,26.2556782 C37.4971095,26.9139813 38.6189612,26.9139813 39.3894123,26.2556782 L39.3894123,26.2556782 L40.2999073,25.4791622 L40.2852344,26.0822431 L39.6674261,26.6096433 C38.9019287,27.2619549 37.8531755,27.3825263 36.9829658,26.9713575 L36.981,27.0331622 L36.9814658,26.980952 C36.8251619,26.9086294 36.6766287,26.8202846 36.5381227,26.7173661 L36.4030427,26.6096433 L35.795,26.0901622 L35.1883157,26.6096433 C34.7434383,26.9885454 34.2029906,27.1879676 33.6575128,27.2079098 L33.4547308,27.2081476 C32.9698381,27.1904142 32.488923,27.030813 32.0756252,26.7293442 Z"/><g fill-rule="nonzero" transform="translate(8.534 2)"><path fill="#000" d="M24.6057611,24.7239528 C24.941558,24.1565721 25.2231821,23.5575719 25.4467526,22.9352069 C25.8624966,22.8884587 26.2671971,22.7687077 26.642984,22.5812417 C27.1985245,22.3076696 27.6742862,21.8904895 28.0230134,21.3711382 L28.2492857,20.9943112 C28.2492857,20.9943112 26.0761449,21.1567094 24.2551548,19.2410406 C24.3045795,19.7991861 24.3246583,20.2453871 24.3262028,20.5969873 C24.3262028,20.7617505 24.3262028,20.9123237 24.3200247,21.0534367 C24.3200247,21.0762986 24.3200247,21.0975838 24.3200247,21.1180807 C24.3080929,21.3165202 24.2856646,21.5141564 24.2528381,21.7101249 C24.2530364,21.7127488 24.2530364,21.7153844 24.2528381,21.7180083 C23.9238551,22.1429241 23.4033516,22.4314569 22.7083172,22.5812417 C22.6743378,22.5891252 22.6395861,22.5954319 22.6048344,22.602527 L22.5762607,22.5812417 C22.0210055,22.1665743 21.9043942,21.3593131 21.9028496,21.3506413 L21.8557418,20.9950995 L21.5360259,21.144096 C21.3341446,21.2501983 21.1528117,21.3928362 21.0008495,21.5650701 C20.3613886,19.9399334 19.2945193,18.5267425 17.9179859,17.4814633 C18.1530347,17.2485877 18.2602614,16.9122435 18.2044946,16.5827545 C18.1591127,16.2800889 18.0980181,15.9800969 18.0214688,15.6840457 L17.9998455,15.5973282 C17.956975,15.4215838 17.956975,15.237789 17.9998455,15.0620446 C18.0796139,14.7278461 17.9796728,14.3755368 17.7373103,14.1365639 C17.4949478,13.897591 17.1465667,13.807848 16.8221484,13.9008182 C16.7146641,13.9320276 16.6110242,13.9756693 16.5132443,14.0308944 C16.4823538,13.946542 16.4491467,13.8621895 16.4128504,13.7794136 C16.2916055,13.1061704 15.5216619,9.56494226 12.6635261,8.80419312 L13.1685844,7.15419525 L11.5259866,6.52352239 L9.88184416,7.15419525 L10.3830412,8.78763796 C7.28473241,9.52079516 6.70630937,13.1771211 6.62908333,13.8006989 C6.59587613,13.879533 6.56421345,13.9583671 6.53486756,14.0372012 C6.43169714,13.9782087 6.32204446,13.9318995 6.20820141,13.8992415 C5.88378317,13.8062713 5.53540208,13.8960143 5.29303956,14.1349872 C5.05067705,14.3739602 4.9507359,14.7262694 5.03050429,15.0604679 C5.0733748,15.2362123 5.0733748,15.4200071 5.03050429,15.5957515 L5.01042552,15.6816807 C4.93360799,15.9779811 4.87225564,16.2782361 4.82662754,16.5811778 C4.77024886,16.9145712 4.88063293,17.2546892 5.12085875,17.4877701 C4.98185188,17.5941961 4.84516179,17.7037755 4.71310526,17.818085 C4.60544914,16.7072104 4.10495318,15.6744447 3.30527454,14.9130481 C4.38412233,13.710828 4.92393235,12.488111 4.90462584,11.2732774 C4.8848683,10.4356356 4.60347125,9.62634551 4.10147502,8.96343802 C5.25986563,8.68042357 6.1186192,8.09626284 6.65534018,7.23539438 C7.47084717,5.92044147 7.31098927,4.32405079 7.179705,3.60902544 C9.43316086,3.81005241 10.7560429,3.020923 11.4781064,2.30037926 C11.977581,1.81229474 12.3465575,1.20198671 12.5500039,0.527400179 L12.4727778,0 C12.4557881,0 12.2951579,0.0252269144 12.0264113,0.0882942004 C8.12031817,0.908957259 5.24982624,2.89163506 3.49061704,5.98508544 C2.44883775,7.8171901 1.79164414,10.049772 1.54529307,12.6213406 C1.34759441,14.6710274 1.40396942,16.9343546 1.71519036,19.3561384 C1.81249517,20.1184642 1.92987876,20.8484681 2.0557572,21.5335365 C1.69357934,22.4668409 1.49290013,23.4572542 1.46266121,24.4606469 C1.3618788,24.4007437 1.23881091,24.8845219 1.447216,24.980952 L1.447216,25.052691 C0.942584228,25.6358629 0.549652467,26.3105361 0.288825392,27.0416755 L0.250212372,27.0085652 L0.0980770716,27.7496058 C0.0331305461,28.0744304 0,28.4050874 0,28.7366089 C0.00136296612,29.3897148 0.1261769,30.0364156 0.367595953,30.6412409 L0.252529153,30.5434866 L0.250984632,31.1481442 L0.868792957,31.6755444 C0.888871728,31.6928879 0.908950498,31.709443 0.929801529,31.7244215 C1.18999725,32.11416 1.4866501,32.4771864 1.81558421,32.8083905 C2.51369156,33.508 3.31016975,34.0973379 4.17870106,34.556931 C4.19260175,34.5656028 4.20804695,34.5726978 4.22194764,34.5797929 L4.1447216,34.586888 L3.83581744,34.8509822 C3.31386574,35.2968788 4.87914125,37 11.464978,37 C18.0508147,37 19.6371735,35.2930667 19.1142173,34.8509822 L18.8053132,34.5876763 L18.8338868,34.5726978 L18.8423817,34.5679678 C18.8502179,34.564806 18.8577212,34.5608442 18.8647772,34.5561427 C18.8802224,34.5490476 18.8948954,34.5403758 18.9095683,34.5324924 C19.3687396,34.2811574 19.7936416,34.009032 20.1821645,33.7190362 C21.0390979,33.0794157 21.7190554,32.3528594 22.1993976,31.570695 L22.6913275,31.1512976 L22.689783,30.55137 C22.9091254,29.9730188 23.0222183,29.3583664 23.0233995,28.7381855 C23.0242999,28.4378947 22.9984515,28.1381422 22.9461734,27.8426301 L22.7376631,27.0637491 C22.7237625,27.0227554 22.7090895,26.9817616 22.6936443,26.9407679 C22.7646923,26.8882118 22.834968,26.8338163 22.9044714,26.7775813 C22.9446289,26.7775813 22.9925091,26.7775813 23.0496563,26.7775813 C23.5369527,26.7775813 24.5864546,26.6987472 25.2714495,26.0838411 L25.6668469,25.7282993 L25.1579273,25.6210849 C24.8354199,25.5559077 24.5187439,25.4636202 24.211136,25.3451656 C24.2574716,25.2781566 24.303035,25.2111476 24.3470538,25.1449269 C25.1230696,25.3322862 25.1955306,24.8175475 24.6057611,24.7239528 Z M11.9530466,0.655111433 C11.7585466,1.12875703 11.4728212,1.55769082 11.1128272,1.91645715 C10.2332226,2.79309243 9.00610086,3.18726297 7.458491,3.09266204 C8.22877225,2.40806107 9.0859854,1.83264099 10.0069503,1.3819619 C10.6308542,1.07541731 11.2826628,0.831972329 11.9530466,0.655111433 Z M6.68700286,3.84552776 C6.79511931,4.54163293 6.87852344,5.88102442 6.21206271,6.95316828 C5.75334003,7.69184387 5.00656421,8.19086377 3.99026952,8.44155623 C4.33807053,7.41877701 4.80503298,6.44237812 5.38111051,5.533366 C5.76488214,4.93113563 6.20201478,4.36615095 6.68700286,3.84552776 Z M3.71534481,9.32686325 C4.13045549,9.89293334 4.36306861,10.5766546 4.38103328,11.2835258 C4.39879527,12.3154643 3.94161711,13.3718413 3.02185497,14.4305834 C3.05377507,12.5695729 3.28493835,10.8683328 3.71534481,9.32686325 Z M3.33539269,19.2599608 C3.15501681,17.9757137 3.05057257,16.6815425 3.02262723,15.3844761 C4.13622674,16.5094388 4.20573017,17.9071675 4.20341339,18.2808412 C3.89246715,18.5862746 3.60244408,18.9131547 3.33539269,19.2591725 L3.33539269,19.2599608 Z"/><path fill="#000" d="M4.30088454 34.6249924 4.14703838 34.6388674 4.21780761 34.5802841C4.242423 34.5972424 4.27165377 34.6111174 4.30088454 34.6249924ZM1.67039926 35.1655303C1.53885818 35.1070297 1.4138149 35.0343529 1.29739748 34.9487365L1.29739748 34.9487365C1.41401382 35.0340363 1.53902336 35.1066935 1.67039926 35.1655303L1.67039926 35.1655303Z"/><polygon fill="#000" points="19.113 34.851 18.803 34.588 18.802 34.587 18.803 34.587"/><path fill="#D32F2F" d="M21.4796509,21.8291644 C21.5747315,22.1400276 21.7261434,22.4299033 21.9260175,22.6837261 C21.6850722,22.6971279 21.4811955,22.6931862 21.3445054,22.6837261 C21.3017736,22.5034588 21.2526064,22.3221403 21.1970036,22.1397707 C21.2842106,22.0298121 21.3786444,21.9260371 21.4796509,21.8291644 Z"/><path fill="#CDAB89" d="M16.6646073,14.5582946 C16.753638,14.4915083 16.8542636,14.4425554 16.9611553,14.4140282 C17.1068104,14.3720422 17.2633501,14.4121959 17.3722622,14.5194805 C17.4811743,14.6267651 17.5260646,14.7850313 17.4901537,14.9351217 C17.4273531,15.193992 17.4273531,15.4645924 17.4901537,15.7234627 L17.511777,15.8117569 C17.5838372,16.0896534 17.6415786,16.3712146 17.6847633,16.6552819 C17.7357325,17.0328973 17.4801143,17.2110623 17.2453471,17.2496911 C17.01058,17.2883198 16.7132597,17.1984489 16.6476176,16.8239869 C16.6476176,16.8105851 16.642984,16.7956066 16.6406672,16.7814165 C16.8310693,16.053872 16.8393015,15.2891463 16.6646073,14.5575063 L16.6646073,14.5582946 Z"/><path fill="#FF9522" d="M21.0603135,24.7192227 C21.0603135,24.8508757 21.0603135,24.9872587 21.0502742,25.1354668 C21.0122738,25.9059874 20.8658454,26.6669153 20.6154915,27.3948523 C20.4606928,27.8443865 20.2684701,28.2795637 20.0409298,28.6956151 L18.8624604,28.0121234 L16.5572631,26.6719436 C16.6659444,25.7251592 16.5948881,24.7658662 16.3479805,23.8465292 C16.3387134,23.8086888 16.3279018,23.7676951 16.3178624,23.7337964 C16.307823,23.6998977 16.2931501,23.6431372 16.2792494,23.596625 L16.2792494,23.596625 L16.2738435,23.596625 C13.9570623,22.8350876 12.2264268,21.8780415 11.0348289,21.0644735 C11.1951492,21.0854254 11.356636,21.0956956 11.518264,21.0952188 C12.9129663,21.0952188 13.3825006,20.4030554 13.4944783,20.1902033 C14.807321,19.6896067 15.8637733,18.705757 16.4004942,17.4759449 L16.4004942,17.4759449 C16.5976186,17.6809397 16.8682121,17.7948482 17.1495868,17.7912814 C17.2087949,17.7909294 17.2678997,17.7861869 17.3264345,17.7770912 C17.3526913,17.7731495 17.3781759,17.7668428 17.4036605,17.7605361 C17.6353386,17.9292411 17.8582645,18.1076689 18.072438,18.2958197 L18.072438,18.2958197 C19.2787088,19.3553501 20.1822535,20.7034133 20.6571936,22.1728811 C20.7447549,22.4421947 20.8179694,22.7161499 20.8765156,22.9935441 C20.9984346,23.5603427 21.0600576,24.1389208 21.0603135,24.7192227 L21.0603135,24.7192227 Z"/><path fill="#FCCFAA" d="M19.79844,29.1686198 C19.7829948,29.2190736 19.7652328,29.2687391 19.7459263,29.3184046 C19.5607783,29.7832788 19.2139926,30.1619903 18.772106,30.3818767 C18.8905075,30.1746769 18.9782088,29.9507255 19.0323577,29.7173052 L18.5188045,29.6203392 C18.5188045,29.6242809 18.4307669,30.0523501 18.0091127,30.588422 C17.7119688,30.6068169 17.4145648,30.5569807 17.1387752,30.4425789 L17.1248745,30.4362722 C17.5166929,30.1445322 17.8470704,29.7753726 18.0963781,29.3507266 L18.0492702,29.3247113 L17.6368832,29.0976691 C17.510313,29.3123431 17.3571744,29.5094746 17.1812495,29.6841948 C17.0141427,29.8543504 16.8301235,30.0062693 16.6321724,30.1374909 C16.4132581,29.956592 16.2340745,29.7307017 16.106263,29.4744961 C16.8190594,29.1449695 17.1658043,28.85013 17.1812495,28.8359398 L16.8453162,28.4291558 C16.5620742,28.6445326 16.2555377,28.8259889 15.9317322,28.9699578 C15.8023966,28.3359384 15.9741952,27.6768172 16.3950884,27.1922487 L18.6917909,28.5261218 L19.79844,29.1686198 Z"/><path fill="#D32F2F" d="M16.0166808,26.7618145 L15.9989188,26.8469553 C15.8738492,26.9915967 15.7652932,27.1502838 15.6753417,27.3199599 C15.3164697,27.3822479 14.9490957,27.3718008 14.5941772,27.2892146 C13.6219013,27.056654 13.042706,26.3085183 12.8264731,25.9766268 C13.84354,24.9194614 15.2027184,24.4330549 15.901614,24.2422764 C16.2275079,25.6825755 16.0189976,26.7499893 16.0166808,26.7618145 Z"/><path fill="#FCCFAA" d="M12.4442042 18.4140708 10.5135532 18.4140708C10.8074508 18.2537483 11.135611 18.1700676 11.4688393 18.170472L11.4889181 18.170472C11.8221268 18.1702304 12.1502488 18.2539013 12.4442042 18.4140708L12.4442042 18.4140708ZM12.6944166 19.8803852C12.3384377 19.9646232 11.9747546 20.0103366 11.6093907 20.0167682L11.3483667 20.0167682C10.9810975 20.0050109 10.6160892 19.9534799 10.2594795 19.8630417 10.0275101 19.8032603 9.8782662 19.5730249 9.91505136 19.3316998 9.94635323 19.1042705 10.0361536 18.8893759 10.1753031 18.7089104 10.5057131 19.090587 10.9806867 19.3091691 11.4796509 19.3091691 11.9786152 19.3091691 12.4535888 19.090587 12.7839988 18.7089104 12.927338 18.8951914 13.0181262 19.1178927 13.0465673 19.352985 13.08057 19.5953241 12.9278115 19.8241035 12.6944166 19.8803852Z"/><path fill="#FCCFAA" d="M16.2676655,15.6020582 L16.2676655,15.6209784 C16.2676655,17.3553288 15.1726002,18.8650019 13.5886941,19.5784506 C13.5755657,19.047897 13.4172523,18.6127328 13.113754,18.2808412 C12.8501358,18.0055387 12.5153914,17.8122648 12.1484285,17.723484 C12.7005946,17.4814633 12.2797127,16.9170111 12.2797127,16.9170111 C12.4341648,17.5532024 11.6387366,17.6265181 11.500502,17.6375549 C11.4871273,17.638345 11.4737191,17.638345 11.4603444,17.6375549 C11.3221098,17.6288831 10.5274539,17.5532024 10.6811337,16.9170111 C10.6811337,16.9170111 10.2602518,17.4814633 10.8124179,17.723484 C10.4452826,17.8118155 10.1104222,18.0051563 9.84709244,18.2808412 C9.55054444,18.6048494 9.39300332,19.0281885 9.37292455,19.5421869 C7.82840374,18.8145481 6.7719515,17.3348319 6.7719515,15.6217667 L6.7719515,15.6028466 C6.78064333,14.5595018 7.46370555,13.647568 8.44775658,13.3655346 C8.52498262,13.343461 8.60220866,13.3221758 8.67943471,13.3024673 L8.67943471,13.3024673 C9.60658079,13.0607077 10.5626535,12.9545363 11.5190362,12.9871309 C12.5562243,12.9524856 13.5924972,13.0800977 14.5918604,13.3655346 C15.575486,13.6477162 16.2583745,14.5590968 16.2676655,15.6020582 L16.2676655,15.6020582 Z"/><path fill="#FFE9D9" d="M5.33554715,16.6560702 C5.37935958,16.3715382 5.43735439,16.0894716 5.50930574,15.8109686 L5.53015677,15.7242511 C5.59295734,15.4653807 5.59295734,15.1947804 5.53015677,14.93591 C5.49424589,14.7858196 5.53913614,14.6275534 5.64804825,14.5202688 C5.75696035,14.4129842 5.91350003,14.3728305 6.05915515,14.4148166 C6.17123816,14.4462313 6.27619037,14.4998001 6.36805931,14.5724848 C6.28742265,14.9169898 6.24647292,15.2699292 6.24604217,15.6241318 C6.24604249,16.0031127 6.29300838,16.3805712 6.3858213,16.7475178 L6.3858213,16.7475178 C6.38118774,16.7751097 6.37732643,16.8019133 6.37269287,16.8263519 C6.30627848,17.2008139 6.00895822,17.2891081 5.77496332,17.2512677 C5.54096841,17.2134274 5.28457796,17.0336856 5.33554715,16.6560702 Z"/><path fill="#FF9522" d="M15.2065797,27.8907189 L15.3224187,27.8907189 C14.0793648,28.2129436 12.8015369,28.3742434 11.5190362,28.370872 C11.1220944,28.370872 10.7274693,28.3550518 10.3374778,28.3258832 C9.76037143,28.2826992 9.18615834,28.2058418 8.61765387,28.0956876 L8.61765387,28.0956876 C8.24079079,28.0226346 7.87036322,27.9335521 7.50637115,27.8284399 C7.47291438,27.673605 7.42587415,27.5221581 7.36581975,27.3759322 C7.27678238,27.1610683 7.1596188,26.9595196 7.01753031,26.7767929 C6.88108447,25.7762884 6.96014962,24.7574401 7.24920843,23.7913453 L6.74955595,23.6384071 C6.50126547,24.4784409 6.39548658,25.355624 6.43679049,26.2320493 C6.29594684,26.1373923 6.14646148,26.056869 5.99042397,25.9916052 C5.59288419,25.8266523 5.16060431,25.7683034 4.73472855,25.8221119 C4.47730842,24.8976506 4.24794707,23.9957884 4.04664453,23.1165253 C3.80261024,22.0454326 3.60207995,21.0074502 3.44505367,20.0025781 C4.04047883,19.1316452 4.77942249,18.3727801 5.6290061,17.7597477 C5.65062939,17.7644778 5.67148042,17.7699962 5.69310371,17.7731495 C5.75157745,17.7828646 5.81070875,17.7878728 5.86995135,17.788128 C6.15713303,17.7922621 6.43292983,17.6736439 6.63062785,17.4609665 C7.04588148,18.399202 7.73079602,19.1863597 8.59448606,19.717987 C8.84160939,19.9970597 10.9058615,22.2186048 15.3610317,23.8417991 C14.5200402,24.1185068 13.265117,24.6813824 12.3098309,25.7566796 L12.1862692,25.8946393 L12.2719901,26.0601909 C12.283574,26.0838411 13.2450382,27.8907189 15.2065797,27.8907189 Z"/><path fill="#FCCFAA" d="M5.37261565,30.0507734 C5.69291489,30.0500651 6.01227896,30.0154558 6.32558499,29.9475007 C5.80378868,30.3941171 5.09514315,30.5388022 4.44521082,30.3314193 C3.79527849,30.1240364 3.29350019,29.5931245 3.11375396,28.9226573 L3.12147656,28.9179273 L3.10448683,28.8887587 C2.91622122,28.14185 3.15628817,27.3503872 3.72507691,26.8427713 C4.29386565,26.3351554 5.09430519,26.1980175 5.79426983,26.4882601 C5.87186284,26.5205235 5.94743067,26.5576461 6.02054213,26.5994162 C5.84369449,26.8177867 5.43825778,27.1835769 4.59649394,27.4153492 L4.73241177,27.9293476 C5.71163796,27.6597349 6.20665688,27.2143222 6.43987953,26.917906 C6.63018739,27.1080601 6.78141369,27.3350668 6.88470152,27.5856309 L6.9163642,27.664465 C6.33515548,28.1576348 5.61112277,28.441865 4.85597343,28.4733029 L4.88145803,29.0062215 C5.65788604,28.973049 6.40787806,28.7088947 7.0391536,28.2462607 C7.05914142,28.5541235 7.01001305,28.8625814 6.89551317,29.1481229 C6.88547378,29.1741382 6.87388988,29.1985767 6.86307823,29.226957 C6.25232973,29.4719734 5.5927265,29.5631039 4.94014982,29.4926279 L4.88068577,30.0223931 C5.04397299,30.0417204 5.20823498,30.051197 5.37261565,30.0507734 Z"/><path fill="#D32F2F" d="M3.93930033,6.25075638 C4.69914043,4.90332786 5.73042598,3.73583383 6.9650166,2.82541441 C6.87311762,2.91055525 6.78044637,2.99884945 6.68854738,3.08872033 C6.67305114,3.09967881 6.65903074,3.11266594 6.64684532,3.12734904 C6.64548237,3.12983253 6.64393323,3.13220463 6.64221175,3.13444411 C6.00360091,3.76706344 5.43608668,4.4704052 4.9501892,5.23143137 C4.28090731,6.29009882 3.75413801,7.43584166 3.3840451,8.63785316 C3.37941154,8.65125495 3.34465982,8.76319939 3.34002626,8.77896621 C2.92222642,10.1807682 2.66311705,11.6268158 2.56776585,13.0888269 C2.30596957,16.7490945 2.86431385,21.0739336 4.22426442,25.9458815 C4.05036564,26.0061638 3.88335962,26.0854584 3.72615646,26.1823838 C3.03215878,23.9277935 2.53038105,21.6161816 2.22642675,19.2733626 C1.75071434,15.5452977 1.66113213,10.2571057 3.93930033,6.25075638 Z"/><path fill="#F6BC01" d="M2.25808943,22.5804534 C2.53442612,23.9140817 2.87854713,25.2321301 3.28905707,26.5292538 C2.93450928,26.8788108 2.68781911,27.326564 2.57934976,27.8174032 C2.23366426,26.9649922 2.03358653,26.0584265 1.98779829,25.1370435 C1.98084794,24.9872587 1.97775767,24.8508757 1.97775767,24.7192227 C1.97736497,23.9967289 2.07164448,23.2774276 2.25808943,22.5804534 L2.25808943,22.5804534 Z"/><path fill="#FF9522" d="M6.0815507,34.8265437 C5.14463451,34.4930364 4.25260263,34.0403818 3.42651942,33.4792688 C1.59008418,32.2084629 0.53208742,30.5308731 0.53208742,28.7342438 C0.53208742,27.731474 0.87419878,26.7373759 1.5252143,25.8276303 C1.67169593,26.9830725 2.04408596,28.0966968 2.62027956,29.1023991 C2.72205648,29.4583281 2.89773961,29.7877031 3.13537725,30.0681169 L3.13537725,30.0681169 C3.39511077,30.3754371 3.72285031,30.615145 4.09143563,30.7673755 C4.29279049,30.850625 4.50380804,30.9070612 4.71928334,30.9352921 L6.0815507,34.8265437 Z"/><path fill="#D32F2F" d="M7.77511777,36.283398 L7.15730944,36.283398 L5.27685536,30.9447522 C5.46547474,30.9255435 5.65143349,30.885092 5.83133833,30.824136 L7.77511777,36.283398 Z"/><path fill="#FF9522" d="M14.9270214,35.402821 C13.8053784,35.6354636 12.6635964,35.75194 11.5190362,35.750493 C10.9475635,35.750493 10.3814966,35.7220991 9.82392463,35.6661269 C9.21295336,35.6057607 8.60577674,35.5104848 8.00525137,35.3807474 L6.30627848,30.6057655 C7.07797597,30.1487399 7.55530944,29.3091312 7.56120164,28.3984105 C7.84384895,28.4733029 8.12881304,28.5387352 8.41763843,28.5970725 L8.45161789,28.649103 C10.127423,31.2348617 12.6395861,32.4008182 14.5115453,32.9258533 L14.9270214,35.402821 Z"/><path fill="#FCCFAA" d="M17.6268438,34.5600844 C17.1013237,34.7852722 16.5625213,34.9766872 16.0135918,35.1332083 C15.8241306,35.1857644 15.6320951,35.2367438 15.4374855,35.2861465 L15.0513553,32.9826139 L15.0513553,32.9826139 L15.0428605,32.9258533 C15.5000386,32.8509609 16.4877597,32.7681851 16.6916364,33.4177782 C16.862306,33.9562151 17.1920612,34.3590574 17.6268438,34.5600844 Z"/><path fill="#FF9522" d="M22.505985,28.7342438 C22.505985,30.791814 21.091204,32.7382282 18.623832,34.0776196 C18.3925146,34.186891 18.1271881,34.1934554 17.8909568,34.0957515 C17.6592787,34.0050923 17.3573249,33.7859334 17.1912889,33.2538032 C16.8105645,32.0405463 15.1193142,32.354306 14.7486292,32.4386585 L14.7486292,32.4386585 C13.0496563,31.975114 10.7560429,30.9573657 9.14819677,28.7255721 C9.93418157,28.8438931 10.7276405,28.9029158 11.5221253,28.9021605 C11.6835277,28.9021605 11.8441579,28.9021605 12.0040158,28.8942771 C13.1404225,28.8630116 14.2701542,28.7060017 15.3733879,28.4260025 C15.3145073,29.6802491 16.149733,30.795235 17.3508943,31.0658777 C18.5520557,31.3365203 19.7694448,30.6840245 20.2332226,29.5210082 C20.2633408,29.4421741 20.2888254,29.3680701 20.3104487,29.2900243 L20.3637347,29.1985767 C20.6401355,28.7260791 20.8728188,28.228325 21.058769,27.7117655 C21.4768475,27.6117207 21.87849,27.4502676 22.2511391,27.2324541 C22.4188318,27.7146939 22.5050077,28.2225228 22.505985,28.7342438 Z"/><path fill="#D32F2F" d="M24.4428141 25.9884519C24.1443693 26.1094746 23.8304705 26.1861985 23.5106958 26.2162824 23.6396633 26.0791111 23.7655417 25.933268 23.8883311 25.7811182 24.0678466 25.8642198 24.2531894 25.9335236 24.4428141 25.9884519L24.4428141 25.9884519ZM27.3001776 21.4428772C26.7577898 22.0213238 26.0219032 22.3700496 25.2390146 22.4196318L25.0606224 22.4322453 25.0606224 22.4322453 25.0081087 22.6041036C24.6841681 23.5625302 24.215124 24.4632267 23.61804 25.2734265 23.3561453 25.6241681 23.0595789 25.9464586 22.7330296 26.2352026L22.6604371 26.2966932C22.5266457 26.410211 22.3863617 26.5155089 22.2403274 26.6120297 21.9352519 26.8194099 21.604019 26.9835687 21.2556954 27.1000128 21.4342202 26.4673239 21.5412309 25.8158577 21.574639 25.1583287 21.5823616 25.0006605 21.5854506 24.8563941 21.5854506 24.715281 21.5848315 24.2931134 21.5541174 23.8715515 21.4935516 23.4539353L21.4935516 23.4539353C21.4835122 23.3751012 21.4711561 23.3009971 21.4580276 23.2253164 21.8382625 23.2347908 22.2185422 23.2084007 22.5940227 23.1464823 23.5547146 22.984084 24.2651942 22.5946435 24.7046104 21.9899859L24.7378176 21.9434738 24.750946 21.8875016C24.8432256 21.3885753 24.874355 20.8798693 24.8436173 20.3730984 25.5547675 20.9462495 26.4027329 21.3155201 27.3001776 21.4428772Z"/><path fill="#000" d="M24.3866479,21.1180807 C24.376209,21.3170241 24.3319388,21.5151223 24.2543402,21.7101249 C24.3188958,21.5141184 24.3630608,21.3164912 24.3866479,21.1180807 Z"/><path fill="#FFF" d="M10.4370994,7.46007159 L11.518264,7.11635488 L11.518264,8.65992671 C11.2850404,8.67253549 11.0536975,8.70951806 10.8278632,8.77029446 L10.4370994,7.46007159 Z"/><path fill="#FFE9D9" d="M9.37138003,19.5413986 C7.82685922,18.8137597 6.77040698,17.3340436 6.77040698,15.6209784 L6.77040698,15.6020582 C6.7790988,14.5587134 7.46216102,13.6467796 8.44621206,13.3647462 C8.5234381,13.3426727 8.60066414,13.3213875 8.67789018,13.301679 L8.67789018,13.301679 C8.67789018,13.301679 7.57973589,14.3265224 7.85697737,16.0719095 C8.13421886,17.8172966 8.74662136,18.7467508 9.37138003,19.5413986 Z"/><path fill="#CDAB89" d="M13.6666924,19.5413986 C15.2112132,18.8137597 16.2676655,17.3340436 16.2676655,15.6209784 L16.2676655,15.6020582 C16.2587163,14.5588036 15.5757587,13.6470095 14.5918604,13.3647462 C14.5146343,13.3426727 14.4374083,13.3213875 14.3601823,13.301679 L14.3601823,13.301679 C14.3601823,13.301679 15.4591088,14.3265224 15.1818673,16.0719095 C14.9046258,17.8172966 14.2906788,18.7467508 13.6666924,19.5413986 Z"/><path fill="#FFE9D9" d="M5.05907792,30.4236588 C4.79431667,30.4266104 4.53168163,30.3751345 4.28681751,30.2722973 C3.71124085,30.0334151 3.27716703,29.53495 3.11220944,28.9234457 L3.11993204,28.9187156 L3.10294231,28.889547 C2.94771702,28.2773609 3.07911798,27.6263023 3.45875052,27.1266072 C3.83838307,26.626912 4.42339927,26.3349793 5.04286045,26.336107 L5.05907792,26.336107 C4.21155461,26.6423548 3.64503743,27.4605351 3.64503743,28.3783078 C3.64503743,29.2960806 4.21155461,30.1142609 5.05907792,30.4205054 L5.05907792,30.4236588 Z"/><path fill="#F6BC01" d="M3.42651942 33.4792688C1.59008418 32.2084629.53208742 30.5308731.53208742 28.7342438.53208742 27.731474.87419878 26.7373759 1.5252143 25.8276303 1.67169593 26.9830725 2.04408596 28.0966968 2.62027956 29.1023991 2.72205648 29.4583281 2.89773961 29.7877031 3.13537725 30.0681169L3.13537725 30.0681169C3.13537725 30.0681169 2.18163565 31.7701453 3.42651942 33.4792688ZM8.59525832 19.7211403C8.59525832 19.7211403 5.49772183 19.2741509 4.45903159 21.8291644 4.28832475 22.2474389 4.15068051 22.6789877 4.04741679 23.1196787 3.8033825 22.048586 3.60285222 21.0106035 3.44582593 20.0057315 4.04125109 19.1347986 4.78019475 18.3759335 5.62977836 17.7629011 5.65140165 17.7676311 5.67225268 17.7731495 5.69387597 17.7763029 5.75234971 17.7860179 5.81148101 17.7910262 5.87072361 17.7912814 6.15790529 17.7954155 6.43370209 17.6767972 6.63140011 17.4641198 7.04665374 18.4023554 7.73156828 19.1895131 8.59525832 19.7211403Z"/><path fill="#F17400" d="M10.3374778 28.3235181C9.76037143 28.2803342 9.18615834 28.2034768 8.61765387 28.0933225L8.61765387 28.0933225C8.24079079 28.0218463 7.87036322 27.9335521 7.50637115 27.8284399 7.47291438 27.673605 7.42587415 27.5221581 7.36581975 27.3759322 7.27678238 27.1610683 7.1596188 26.9595196 7.01753031 26.7767929 6.88108447 25.7762884 6.96014962 24.7574401 7.24920843 23.7913453 7.24920843 23.7913453 7.66159549 27.2939447 10.3374778 28.3235181ZM14.6953433 22.4353986C15.1795505 22.8697746 15.750251 23.3246474 16.2746158 23.5989901 13.9578346 22.8374526 12.227199 21.8804065 11.0356012 21.0668385 11.1959214 21.0877905 11.3574082 21.0980606 11.5190362 21.0975838 12.9137385 21.0975838 13.3832728 20.4054204 13.4952506 20.1925683 14.8080933 19.6919717 15.8645455 18.708122 16.4012665 17.47831 16.38196 17.5492607 15.8892579 19.352985 14.655958 20.5244599 14.3972206 20.774809 14.2539774 21.1249867 14.2614763 21.4888248 14.2689751 21.8526629 14.4265198 22.1963803 14.6953433 22.4353986L14.6953433 22.4353986ZM14.7455402 32.4378702C13.0465673 31.9743256 10.7529539 30.9565773 9.14510773 28.7247837 9.93109253 28.8431048 10.7245514 28.9021275 11.5190362 28.9013721 11.6804386 28.9013721 11.8410688 28.9013721 12.0009267 28.8934887 12.0387675 29.4713427 12.3422658 31.7701453 14.7455402 32.4378702Z"/><path fill="#CDAB89" d="M17.1835663 29.6857715C17.0164595 29.8559271 16.8324403 30.007846 16.6344891 30.1390676 16.4155749 29.9581687 16.2363913 29.7322784 16.1085798 29.4760728 16.4424501 29.6417474 16.8133788 29.7141048 17.1835663 29.6857715ZM18.6917909 28.5276985 19.79844 29.1686198C19.7829948 29.2190736 19.7652328 29.2687391 19.7459263 29.3184046 19.5607783 29.7832788 19.2139926 30.1619903 18.772106 30.3818767 18.8905075 30.1746769 18.9782088 29.9507255 19.0323577 29.7173052L18.5188045 29.6203392C18.5188045 29.6242809 18.4307669 30.0523501 18.0091127 30.588422 17.7119688 30.6068169 17.4145648 30.5569807 17.1387752 30.4425789L17.1248745 30.4362722C17.5166929 30.1445322 17.8470704 29.7753726 18.0963781 29.3507266L18.0492702 29.3247113C18.317699 29.1099268 18.5369746 28.8379271 18.6917909 28.5276985Z"/><path fill="#F17400" d="M21.0603135,24.7184344 C21.0603135,24.8508757 21.0603135,24.9872587 21.0495019,25.1354668 C21.0114376,25.9059794 20.865011,26.666898 20.6147193,27.3948523 C20.4604808,27.8444878 20.2685049,28.2796911 20.0409298,28.6956151 L18.8632327,28.0121234 C21.3576338,22.2572336 18.1319021,18.3841139 18.0732103,18.2934546 C19.279481,19.3537734 20.183798,20.7018366 20.6587381,22.1713044 C20.9240515,22.9921338 21.0593537,23.8509235 21.0595413,24.715281 L21.0603135,24.7184344 Z"/><path fill="#9A0007" d="M15.9054753 24.2399114C16.2275079 25.6825755 16.0189976 26.7499893 16.0166808 26.7626028L15.9989188 26.8477436C15.8738492 26.992385 15.7652932 27.1510721 15.6753417 27.3207483 15.3164697 27.3830363 14.9490957 27.3725892 14.5941772 27.290003 16.0622442 27.1244514 15.9054753 24.2399114 15.9054753 24.2399114ZM25.0606224 22.433822 25.0081087 22.6056803C24.6841681 23.5641069 24.215124 24.4648034 23.61804 25.2750032 23.3561453 25.6257448 23.0595789 25.9480353 22.7330296 26.2367793L22.6604371 26.2982699C22.5266457 26.4117877 22.3863617 26.5170856 22.2403274 26.6136063 21.9352519 26.8209865 21.604019 26.9851454 21.2556954 27.1015895 21.4342202 26.4689006 21.5412309 25.8174343 21.574639 25.1599054 21.5823616 25.0022372 21.5854506 24.8579708 21.5854506 24.7168577 21.5848315 24.2946901 21.5541174 23.8731282 21.4935516 23.455512 21.5707777 23.7188179 21.8024558 24.1863042 22.5090741 24.7523331 23.5933277 25.6210849 25.0173759 22.5189628 25.0606224 22.433822Z"/><circle cx="14.633" cy="25.986" r="1" fill="#000"/><path fill="#2E0000" d="M22.0418565 24.2998267C22.0275232 24.2998412 22.0136193 24.2948318 22.0024712 24.2856351 21.9886527 24.2750115 21.9796274 24.2591371 21.9774459 24.2416189 21.9752644 24.2241006 21.9801121 24.206426 21.9908873 24.1926109 22.0725232 24.101851 22.1109318 23.9790364 22.0959147 23.8567776 22.0644869 23.7437203 21.9921659 23.647069 21.8935825 23.5863766 21.8784649 23.5777616 21.8673482 23.5633349 21.8627068 23.5463076 21.8580654 23.5292803 21.8602845 23.5110654 21.8688702 23.4957174 21.8867366 23.463934 21.9262996 23.4526959 21.9576801 23.4704905 22.0893776 23.550041 22.1848841 23.6795623 22.2233377 23.8307623 22.2473702 23.9910752 22.199761 24.1539451 22.093598 24.2745984 22.0810506 24.2906591 22.0619799 24.2999572 22.0418565 24.2998267ZM22.1623291 25.356991C22.1477821 25.3568779 22.1336738 25.3518926 22.1221716 25.3428005 22.1086495 25.3319313 22.099913 25.3160221 22.0978852 25.2985751 22.0958575 25.2811282 22.1007048 25.2635737 22.11136 25.2497763 22.19287 25.1592591 22.2312767 25.0367387 22.2163874 24.9147313 22.1853019 24.8010694 22.1125791 24.7039685 22.0132829 24.643542 21.9854373 24.6236985 21.9770152 24.5854501 21.9938638 24.5553511 22.0107124 24.5252521 22.0472685 24.5132407 22.0781528 24.5276559 22.2096226 24.6074658 22.3050496 24.7368792 22.3438103 24.8879277 22.3679382 25.0480059 22.3203023 25.2106773 22.2140706 25.3309754 22.201756 25.3474278 22.182612 25.3570533 22.1623291 25.356991ZM22.8148892 24.3920612C22.80027 24.3923968 22.786019 24.3873611 22.7747316 24.3778711 22.7609131 24.3672474 22.7518878 24.351373 22.7497063 24.3338548 22.7475248 24.3163365 22.7523725 24.2986619 22.7631477 24.2848468 22.8450645 24.1942536 22.8835159 24.0713026 22.8681751 23.9490135 22.8367473 23.8359562 22.7644264 23.7393049 22.6658429 23.6786125 22.6347079 23.6603262 22.6239895 23.6197367 22.6419028 23.5879533 22.6598162 23.5561699 22.6995777 23.5452284 22.7307128 23.5635147 22.8621916 23.6429461 22.9576572 23.7721286 22.9963704 23.9229983 23.0197512 24.0833994 22.9719099 24.2460949 22.8658584 24.3668343 22.8536276 24.3828662 22.8347945 24.3921875 22.8148892 24.3920612L22.8148892 24.3920612ZM22.9955981 25.5816679C22.9809897 25.581934 22.9667616 25.5769063 22.9554406 25.5674777 22.9419185 25.5566085 22.933182 25.5406993 22.9311542 25.5232523 22.9291265 25.5058054 22.9339737 25.488251 22.9446289 25.4744535 23.0273163 25.3848382 23.0669017 25.2624547 23.0527454 25.1401969 23.0208345 25.0269792 22.9486835 24.9299928 22.8504132 24.8682192 22.8352955 24.8596042 22.8241788 24.8451775 22.8195375 24.8281502 22.8148961 24.8111229 22.8171152 24.792908 22.8257008 24.77756 22.8435672 24.7457766 22.8831302 24.7345385 22.9145108 24.7523331 23.0459806 24.832143 23.1414076 24.9615564 23.1801684 25.1126049 23.2042009 25.2729178 23.1565916 25.4357877 23.0504286 25.556441 23.0371424 25.5732998 23.0167712 25.5826724 22.9955981 25.5816679ZM23.5060622 24.6522138C23.4914953 24.6522138 23.4773501 24.6472222 23.4659047 24.6380236 23.4520862 24.6274 23.4430609 24.6115256 23.4408794 24.5940073 23.4386979 24.576489 23.4435455 24.5588144 23.4543208 24.5449994 23.535924 24.4545374 23.5743449 24.331972 23.5593482 24.2099544 23.5281655 24.0965689 23.4558072 23.9995859 23.357016 23.9387651 23.3291704 23.9189215 23.3207483 23.8806732 23.337597 23.8505742 23.3544456 23.8204751 23.3910016 23.8084637 23.4218859 23.8228789 23.5531306 23.9029449 23.6484794 24.0322523 23.6875434 24.1831508 23.7108025 24.3434081 23.6632899 24.5059473 23.5578037 24.6269868 23.5451841 24.6429545 23.5261601 24.6522298 23.5060622 24.6522138ZM22.280485 26.414156C22.2554798 26.4140845 22.2326863 26.3995169 22.2217008 26.3765862 22.2107153 26.3536556 22.2134461 26.3263453 22.2287435 26.3061533 22.3103143 26.2159897 22.3487476 26.0936732 22.3337709 25.9718967 22.3025882 25.8585112 22.2302299 25.7615282 22.1314387 25.7007074 22.1004842 25.6818973 22.0898629 25.6413256 22.1074986 25.6092598 22.1160686 25.5939616 22.1302586 25.5827815 22.1469271 25.5781947 22.1635956 25.5736079 22.1813676 25.5759927 22.1963086 25.5848212 22.3275533 25.6648872 22.4229022 25.7941946 22.4619662 25.9450931 22.4853155 26.1051155 22.4377774 26.2674532 22.3322264 26.3881408 22.3196883 26.404313 22.3006866 26.4138669 22.280485 26.414156Z"/><path fill="#FFF" d="M7.28704919,13.301679 C7.28704919,13.301679 7.69557495,10.0584438 10.4370994,9.20940043 C10.4370994,9.20940043 8.80531315,10.1554097 8.46242953,12.7403801 C8.04799578,12.8734686 7.65273835,13.0622224 7.28704919,13.301679 Z"/><path fill="#CDAB89" d="M16.0135918,35.1332083 C15.8241306,35.1857644 15.6320951,35.2367438 15.4374855,35.2861465 L15.0513553,32.9826139 L16.0135918,35.1332083 Z"/><path fill="#F17400" d="M9.82392463,35.6661269 C9.21295336,35.6057607 8.60577674,35.5104848 8.00525137,35.3807474 L6.30627848,30.6057655 C7.07797597,30.1487399 7.55530944,29.3091312 7.56120164,28.3984105 C7.73388296,28.8578994 7.76089504,29.3611348 7.63842768,29.837133 C7.39605536,30.7003583 7.5075439,31.6270568 7.94733184,32.4047599 L9.82392463,35.6661269 Z"/><circle cx="13.998" cy="17.251" r="1" fill="#FFB2AE"/><circle cx="8.963" cy="17.251" r="1" fill="#FFB2AE"/><path fill="#000" d="M14.4806549 15.7668215C14.4806549 15.7668215 13.9833192 15.1503388 12.8272453 15.1519124 12.7419438 15.1519124 12.6727933 15.2225059 12.6727933 15.3095837L12.6727933 15.3095837C12.6747417 15.3924352 12.7391913 15.4596047 12.820295 15.4633102 13.1539115 15.4704052 13.9786856 15.5145524 14.4806549 15.7668215ZM13.3786393 14.6024417C13.8132343 14.7180802 14.2076755 14.9550322 14.5177234 15.2867218 14.5177234 15.2867218 14.5594254 14.5464695 13.5207352 14.152299 13.4467662 14.1226268 13.3630605 14.1337299 13.2989763 14.1817142 13.2348921 14.2296986 13.1993745 14.3078661 13.2048807 14.3888013L13.2048807 14.3888013C13.2114411 14.4908825 13.2815523 14.577086 13.3786393 14.6024417L13.3786393 14.6024417ZM8.48405282 15.7668215C8.48405282 15.7668215 8.98061626 15.1503388 10.1366901 15.1519124 10.2219916 15.1519124 10.2911422 15.2225059 10.2911422 15.3095837L10.2911422 15.3095837C10.2891937 15.3924352 10.2247441 15.4596047 10.1436404 15.4633102 9.8069349 15.4704052 8.98216078 15.5145524 8.48405282 15.7668215ZM9.58220712 14.6024417C9.14761206 14.7180802 8.7531709 14.9550322 8.44312302 15.2867218 8.44312302 15.2867218 8.40142096 14.5464695 9.44011121 14.152299 9.51408025 14.1226268 9.59778589 14.1337299 9.6618701 14.1817142 9.72595431 14.2296986 9.76147187 14.3078661 9.75596571 14.3888013L9.75596571 14.3888013C9.74940532 14.4908825 9.67929411 14.577086 9.58220712 14.6024417L9.58220712 14.6024417ZM11.4804232 19.7668641C11.2133773 19.7678261 10.9495067 19.7077577 10.7081628 19.591064 10.6805043 19.5809428 10.6608683 19.5556764 10.6575042 19.5258799 10.6541402 19.4960835 10.6676311 19.4669197 10.692309 19.450641 10.7169869 19.4343623 10.748576 19.4337893 10.7738049 19.4491627 11.2217056 19.6625001 11.7391408 19.6625001 12.1870415 19.4491627 12.2122704 19.4337893 12.2438595 19.4343623 12.2685374 19.450641 12.2932153 19.4669197 12.3067062 19.4960835 12.3033422 19.5258799 12.2999781 19.5556764 12.2803421 19.5809428 12.2526836 19.591064 12.0113397 19.7077577 11.7474691 19.7678261 11.4804232 19.7668641L11.4804232 19.7668641Z"/></g></g></svg>