<svg xmlns="http://www.w3.org/2000/svg" width="40" height="40" viewBox="0 0 40 40"><g fill="none" fill-rule="evenodd"><rect width="40" height="40" fill="#000"/><path fill="#E6E6E6" fill-rule="nonzero" d="M32.0756252,37.7293442 L31.9239323,37.6096433 L31.306124,37.0814548 L30.6883157,37.6096433 C29.9165475,38.2669583 28.8571615,38.38413 27.9828529,37.9611586 L27.981,38.0011622 L27.9814658,37.980952 C27.8251619,37.9086294 27.6766287,37.8202846 27.5381227,37.7173661 L27.4030427,37.6096433 L26.7852344,37.0822431 L26.1674261,37.6096433 C25.2777781,38.3677488 24.0055452,38.407649 23.0756252,37.7293442 L22.9239323,37.6096433 L22.306124,37.0814548 L21.6883157,37.6096433 C20.9165475,38.2669583 19.8571615,38.38413 18.9828529,37.9611586 L18.981,38.0011622 L18.9814658,37.980952 C18.8251619,37.9086294 18.6766287,37.8202846 18.5381227,37.7173661 L18.4030427,37.6096433 L17.7852344,37.0822431 L17.1674261,37.6096433 C16.2777781,38.3677488 15.0055452,38.407649 14.0756252,37.7293442 L13.9239323,37.6096433 L13.306124,37.0814548 L12.6883157,37.6096433 C11.9165475,38.2669583 10.8571615,38.38413 9.98285286,37.9611586 L9.981,38.0011622 L9.98146575,37.980952 C9.82516193,37.9086294 9.67662872,37.8202846 9.53812272,37.7173661 L9.40304271,37.6096433 L8.78523438,37.0822431 L8.16742606,37.6096433 C7.27777812,38.3677488 6.00554521,38.407649 5.07562516,37.7293442 L4.92393235,37.6096433 L4.30612403,37.0814548 L3.6883157,37.6096433 C2.79856081,38.3674475 1.52652491,38.407332 0.596529917,37.7292966 L0.444821994,37.6096433 L0,37.2304513 L0,36.6250053 L0.736736428,37.2556782 C1.46186687,37.8752576 2.49827258,37.9117034 3.26002364,37.3650157 L3.39949031,37.2556782 L4.31539115,36.4791622 L5.22665843,37.2556782 C5.95178887,37.8752576 6.98819458,37.9117034 7.74994564,37.3650157 L7.88941231,37.2556782 L8.79990733,36.4791622 L9,36.6501622 L9,36.6250053 L9.73673643,37.2556782 C10.4618669,37.8752576 11.4982726,37.9117034 12.2600236,37.3650157 L12.3994903,37.2556782 L13.3153911,36.4791622 L14.2266584,37.2556782 C14.9517889,37.8752576 15.9881946,37.9117034 16.7499456,37.3650157 L16.8894123,37.2556782 L17.7999073,36.4791622 L18,36.6501622 L18,36.6250053 L18.7367364,37.2556782 C19.4618669,37.8752576 20.4982726,37.9117034 21.2600236,37.3650157 L21.3994903,37.2556782 L22.3153911,36.4791622 L23.2266584,37.2556782 C23.9517889,37.8752576 24.9881946,37.9117034 25.7499456,37.3650157 L25.8894123,37.2556782 L26.7999073,36.4791622 L27,36.6501622 L27,36.6250053 L27.7367364,37.2556782 C28.4618669,37.8752576 29.4982726,37.9117034 30.2600236,37.3650157 L30.3994903,37.2556782 L31.3153911,36.4791622 L31.499,36.6361622 L31.5,36.6250053 L32.2367364,37.2556782 C32.5993016,37.5654679 33.0396857,37.7294742 33.4846473,37.7476971 L33.6415014,37.7476971 C34.0308428,37.731752 34.4166796,37.6041916 34.7499456,37.3650157 L34.8894123,37.2556782 L35.7999073,36.4791622 L35.807,36.4861622 L35.8153911,36.4791622 L36.7266584,37.2556782 C37.4971095,37.9139813 38.6189612,37.9139813 39.3894123,37.2556782 L39.3894123,37.2556782 L40.2999073,36.4791622 L40.2852344,37.0822431 L39.6674261,37.6096433 C38.9019287,38.2619549 37.8531755,38.3825263 36.9829658,37.9713575 L36.981,38.0331622 L36.9814658,37.980952 C36.8251619,37.9086294 36.6766287,37.8202846 36.5381227,37.7173661 L36.4030427,37.6096433 L35.795,37.0901622 L35.1883157,37.6096433 C34.7434383,37.9885454 34.2029906,38.1879676 33.6575128,38.2079098 L33.4547308,38.2081476 C32.9698381,38.1904142 32.488923,38.030813 32.0756252,37.7293442 Z M32.0756252,33.7293442 L31.9239323,33.6096433 L31.306124,33.0814548 L30.6883157,33.6096433 C29.9165475,34.2669583 28.8571615,34.38413 27.9828529,33.9611586 L27.981,34.0011622 L27.9814658,33.980952 C27.8251619,33.9086294 27.6766287,33.8202846 27.5381227,33.7173661 L27.4030427,33.6096433 L26.7852344,33.0822431 L26.1674261,33.6096433 C25.2777781,34.3677488 24.0055452,34.407649 23.0756252,33.7293442 L22.9239323,33.6096433 L22.306124,33.0814548 L21.6883157,33.6096433 C20.9165475,34.2669583 19.8571615,34.38413 18.9828529,33.9611586 L18.981,34.0011622 L18.9814658,33.980952 C18.8251619,33.9086294 18.6766287,33.8202846 18.5381227,33.7173661 L18.4030427,33.6096433 L17.7852344,33.0822431 L17.1674261,33.6096433 C16.2777781,34.3677488 15.0055452,34.407649 14.0756252,33.7293442 L13.9239323,33.6096433 L13.306124,33.0814548 L12.6883157,33.6096433 C11.9165475,34.2669583 10.8571615,34.38413 9.98285286,33.9611586 L9.981,34.0011622 L9.98146575,33.980952 C9.82516193,33.9086294 9.67662872,33.8202846 9.53812272,33.7173661 L9.40304271,33.6096433 L8.78523438,33.0822431 L8.16742606,33.6096433 C7.27777812,34.3677488 6.00554521,34.407649 5.07562516,33.7293442 L4.92393235,33.6096433 L4.30612403,33.0814548 L3.6883157,33.6096433 C2.79856081,34.3674475 1.52652491,34.407332 0.596529917,33.7292966 L0.444821994,33.6096433 L0,33.2304513 L0,32.6250053 L0.736736428,33.2556782 C1.46186687,33.8752576 2.49827258,33.9117034 3.26002364,33.3650157 L3.39949031,33.2556782 L4.31539115,32.4791622 L5.22665843,33.2556782 C5.95178887,33.8752576 6.98819458,33.9117034 7.74994564,33.3650157 L7.88941231,33.2556782 L8.79990733,32.4791622 L9,32.6501622 L9,32.6250053 L9.73673643,33.2556782 C10.4618669,33.8752576 11.4982726,33.9117034 12.2600236,33.3650157 L12.3994903,33.2556782 L13.3153911,32.4791622 L14.2266584,33.2556782 C14.9517889,33.8752576 15.9881946,33.9117034 16.7499456,33.3650157 L16.8894123,33.2556782 L17.7999073,32.4791622 L18,32.6501622 L18,32.6250053 L18.7367364,33.2556782 C19.4618669,33.8752576 20.4982726,33.9117034 21.2600236,33.3650157 L21.3994903,33.2556782 L22.3153911,32.4791622 L23.2266584,33.2556782 C23.9517889,33.8752576 24.9881946,33.9117034 25.7499456,33.3650157 L25.8894123,33.2556782 L26.7999073,32.4791622 L27,32.6501622 L27,32.6250053 L27.7367364,33.2556782 C28.4618669,33.8752576 29.4982726,33.9117034 30.2600236,33.3650157 L30.3994903,33.2556782 L31.3153911,32.4791622 L31.499,32.6361622 L31.5,32.6250053 L32.2367364,33.2556782 C32.5993016,33.5654679 33.0396857,33.7294742 33.4846473,33.7476971 L33.6415014,33.7476971 C34.0308428,33.731752 34.4166796,33.6041916 34.7499456,33.3650157 L34.8894123,33.2556782 L35.7999073,32.4791622 L35.807,32.4861622 L35.8153911,32.4791622 L36.7266584,33.2556782 C37.4971095,33.9139813 38.6189612,33.9139813 39.3894123,33.2556782 L39.3894123,33.2556782 L40.2999073,32.4791622 L40.2852344,33.0822431 L39.6674261,33.6096433 C38.9019287,34.2619549 37.8531755,34.3825263 36.9829658,33.9713575 L36.981,34.0331622 L36.9814658,33.980952 C36.8251619,33.9086294 36.6766287,33.8202846 36.5381227,33.7173661 L36.4030427,33.6096433 L35.795,33.0901622 L35.1883157,33.6096433 C34.7434383,33.9885454 34.2029906,34.1879676 33.6575128,34.2079098 L33.4547308,34.2081476 C32.9698381,34.1904142 32.488923,34.030813 32.0756252,33.7293442 Z M32.0756252,30.250182 L31.9239323,30.1304811 L31.306124,29.6022926 L30.6883157,30.1304811 C29.9165475,30.7877961 28.8571615,30.9049678 27.9828529,30.4819963 L27.981,30.522 L27.9814658,30.5017897 C27.8251619,30.4294672 27.6766287,30.3411224 27.5381227,30.2382039 L27.4030427,30.1304811 L26.7852344,29.6030809 L26.1674261,30.1304811 C25.2777781,30.8885865 24.0055452,30.9284868 23.0756252,30.250182 L22.9239323,30.1304811 L22.306124,29.6022926 L21.6883157,30.1304811 C20.9165475,30.7877961 19.8571615,30.9049678 18.9828529,30.4819963 L18.981,30.522 L18.9814658,30.5017897 C18.8251619,30.4294672 18.6766287,30.3411224 18.5381227,30.2382039 L18.4030427,30.1304811 L17.7852344,29.6030809 L17.1674261,30.1304811 C16.2777781,30.8885865 15.0055452,30.9284868 14.0756252,30.250182 L13.9239323,30.1304811 L13.306124,29.6022926 L12.6883157,30.1304811 C11.9165475,30.7877961 10.8571615,30.9049678 9.98285286,30.4819963 L9.981,30.522 L9.98146575,30.5017897 C9.82516193,30.4294672 9.67662872,30.3411224 9.53812272,30.2382039 L9.40304271,30.1304811 L8.78523438,29.6030809 L8.16742606,30.1304811 C7.27777812,30.8885865 6.00554521,30.9284868 5.07562516,30.250182 L4.92393235,30.1304811 L4.30612403,29.6022926 L3.6883157,30.1304811 C2.79856081,30.8882853 1.52652491,30.9281698 0.596529917,30.2501344 L0.444821994,30.1304811 L0,29.751289 L0,29.1458431 L0.736736428,29.776516 C1.46186687,30.3960953 2.49827258,30.4325412 3.26002364,29.8858535 L3.39949031,29.776516 L4.31539115,29 L5.22665843,29.776516 C5.95178887,30.3960953 6.98819458,30.4325412 7.74994564,29.8858535 L7.88941231,29.776516 L8.79990733,29 L9,29.171 L9,29.1458431 L9.73673643,29.776516 C10.4618669,30.3960953 11.4982726,30.4325412 12.2600236,29.8858535 L12.3994903,29.776516 L13.3153911,29 L14.2266584,29.776516 C14.9517889,30.3960953 15.9881946,30.4325412 16.7499456,29.8858535 L16.8894123,29.776516 L17.7999073,29 L18,29.171 L18,29.1458431 L18.7367364,29.776516 C19.4618669,30.3960953 20.4982726,30.4325412 21.2600236,29.8858535 L21.3994903,29.776516 L22.3153911,29 L23.2266584,29.776516 C23.9517889,30.3960953 24.9881946,30.4325412 25.7499456,29.8858535 L25.8894123,29.776516 L26.7999073,29 L27,29.171 L27,29.1458431 L27.7367364,29.776516 C28.4618669,30.3960953 29.4982726,30.4325412 30.2600236,29.8858535 L30.3994903,29.776516 L31.3153911,29 L31.499,29.157 L31.5,29.1458431 L32.2367364,29.776516 C32.5993016,30.0863056 33.0396857,30.250312 33.4846473,30.2685349 L33.6415014,30.2685349 C34.0308428,30.2525898 34.4166796,30.1250294 34.7499456,29.8858535 L34.8894123,29.776516 L35.7999073,29 L35.807,29.007 L35.8153911,29 L36.7266584,29.776516 C37.4971095,30.434819 38.6189612,30.434819 39.3894123,29.776516 L39.3894123,29.776516 L40.2999073,29 L40.2852344,29.6030809 L39.6674261,30.1304811 C38.9019287,30.7827927 37.8531755,30.9033641 36.9829658,30.4921953 L36.981,30.554 L36.9814658,30.5017897 C36.8251619,30.4294672 36.6766287,30.3411224 36.5381227,30.2382039 L36.4030427,30.1304811 L35.795,29.611 L35.1883157,30.1304811 C34.7434383,30.5093832 34.2029906,30.7088054 33.6575128,30.7287476 L33.4547308,30.7289854 C32.9698381,30.7112519 32.488923,30.5516508 32.0756252,30.250182 Z M32.0756252,26.7293442 L31.9239323,26.6096433 L31.306124,26.0814548 L30.6883157,26.6096433 C29.9165475,27.2669583 28.8571615,27.38413 27.9828529,26.9611586 L27.981,27.0011622 L27.9814658,26.980952 C27.8251619,26.9086294 27.6766287,26.8202846 27.5381227,26.7173661 L27.4030427,26.6096433 L26.7852344,26.0822431 L26.1674261,26.6096433 C25.2777781,27.3677488 24.0055452,27.407649 23.0756252,26.7293442 L22.9239323,26.6096433 L22.306124,26.0814548 L21.6883157,26.6096433 C20.9165475,27.2669583 19.8571615,27.38413 18.9828529,26.9611586 L18.981,27.0011622 L18.9814658,26.980952 C18.8251619,26.9086294 18.6766287,26.8202846 18.5381227,26.7173661 L18.4030427,26.6096433 L17.7852344,26.0822431 L17.1674261,26.6096433 C16.2777781,27.3677488 15.0055452,27.407649 14.0756252,26.7293442 L13.9239323,26.6096433 L13.306124,26.0814548 L12.6883157,26.6096433 C11.9165475,27.2669583 10.8571615,27.38413 9.98285286,26.9611586 L9.981,27.0011622 L9.98146575,26.980952 C9.82516193,26.9086294 9.67662872,26.8202846 9.53812272,26.7173661 L9.40304271,26.6096433 L8.78523438,26.0822431 L8.16742606,26.6096433 C7.27777812,27.3677488 6.00554521,27.407649 5.07562516,26.7293442 L4.92393235,26.6096433 L4.30612403,26.0814548 L3.6883157,26.6096433 C2.79856081,27.3674475 1.52652491,27.407332 0.596529917,26.7292966 L0.444821994,26.6096433 L0,26.2304513 L0,25.6250053 L0.736736428,26.2556782 C1.46186687,26.8752576 2.49827258,26.9117034 3.26002364,26.3650157 L3.39949031,26.2556782 L4.31539115,25.4791622 L5.22665843,26.2556782 C5.95178887,26.8752576 6.98819458,26.9117034 7.74994564,26.3650157 L7.88941231,26.2556782 L8.79990733,25.4791622 L9,25.6501622 L9,25.6250053 L9.73673643,26.2556782 C10.4618669,26.8752576 11.4982726,26.9117034 12.2600236,26.3650157 L12.3994903,26.2556782 L13.3153911,25.4791622 L14.2266584,26.2556782 C14.9517889,26.8752576 15.9881946,26.9117034 16.7499456,26.3650157 L16.8894123,26.2556782 L17.7999073,25.4791622 L18,25.6501622 L18,25.6250053 L18.7367364,26.2556782 C19.4618669,26.8752576 20.4982726,26.9117034 21.2600236,26.3650157 L21.3994903,26.2556782 L22.3153911,25.4791622 L23.2266584,26.2556782 C23.9517889,26.8752576 24.9881946,26.9117034 25.7499456,26.3650157 L25.8894123,26.2556782 L26.7999073,25.4791622 L27,25.6501622 L27,25.6250053 L27.7367364,26.2556782 C28.4618669,26.8752576 29.4982726,26.9117034 30.2600236,26.3650157 L30.3994903,26.2556782 L31.3153911,25.4791622 L31.499,25.6361622 L31.5,25.6250053 L32.2367364,26.2556782 C32.5993016,26.5654679 33.0396857,26.7294742 33.4846473,26.7476971 L33.6415014,26.7476971 C34.0308428,26.731752 34.4166796,26.6041916 34.7499456,26.3650157 L34.8894123,26.2556782 L35.7999073,25.4791622 L35.807,25.4861622 L35.8153911,25.4791622 L36.7266584,26.2556782 C37.4971095,26.9139813 38.6189612,26.9139813 39.3894123,26.2556782 L39.3894123,26.2556782 L40.2999073,25.4791622 L40.2852344,26.0822431 L39.6674261,26.6096433 C38.9019287,27.2619549 37.8531755,27.3825263 36.9829658,26.9713575 L36.981,27.0331622 L36.9814658,26.980952 C36.8251619,26.9086294 36.6766287,26.8202846 36.5381227,26.7173661 L36.4030427,26.6096433 L35.795,26.0901622 L35.1883157,26.6096433 C34.7434383,26.9885454 34.2029906,27.1879676 33.6575128,27.2079098 L33.4547308,27.2081476 C32.9698381,27.1904142 32.488923,27.030813 32.0756252,26.7293442 Z"/><g fill-rule="nonzero" transform="translate(8.534 2)"><path fill="#000" d="M24.6057611,24.7239528 C24.941558,24.1565721 25.2231821,23.5575719 25.4467526,22.9352069 C25.8624966,22.8884587 26.2671971,22.7687077 26.642984,22.5812417 C27.1985245,22.3076696 27.6742862,21.8904895 28.0230134,21.3711382 L28.2492857,20.9943112 C28.2492857,20.9943112 26.0761449,21.1567094 24.2551548,19.2410406 C24.3045795,19.7991861 24.3246583,20.2453871 24.3262028,20.5969873 C24.3262028,20.7617505 24.3262028,20.9123237 24.3200247,21.0534367 C24.3200247,21.0762986 24.3200247,21.0975838 24.3200247,21.1180807 C24.3080929,21.3165202 24.2856646,21.5141564 24.2528381,21.7101249 C24.2530364,21.7127488 24.2530364,21.7153844 24.2528381,21.7180083 C23.9238551,22.1429241 23.4033516,22.4314569 22.7083172,22.5812417 C22.6743378,22.5891252 22.6395861,22.5954319 22.6048344,22.602527 L22.5762607,22.5812417 C22.0210055,22.1665743 21.9043942,21.3593131 21.9028496,21.3506413 L21.8557418,20.9950995 L21.5360259,21.144096 C21.3341446,21.2501983 21.1528117,21.3928362 21.0008495,21.5650701 C20.3613886,19.9399334 19.2945193,18.5267425 17.9179859,17.4814633 C18.1530347,17.2485877 18.2602614,16.9122435 18.2044946,16.5827545 C18.1591127,16.2800889 18.0980181,15.9800969 18.0214688,15.6840457 L17.9998455,15.5973282 C17.956975,15.4215838 17.956975,15.237789 17.9998455,15.0620446 C18.0796139,14.7278461 17.9796728,14.3755368 17.7373103,14.1365639 C17.4949478,13.897591 17.1465667,13.807848 16.8221484,13.9008182 C16.7146641,13.9320276 16.6110242,13.9756693 16.5132443,14.0308944 C16.4823538,13.946542 16.4491467,13.8621895 16.4128504,13.7794136 C16.2916055,13.1061704 15.5216619,9.56494226 12.6635261,8.80419312 L13.1685844,7.15419525 L11.5259866,6.52352239 L9.88184416,7.15419525 L10.3830412,8.78763796 C7.28473241,9.52079516 6.70630937,13.1771211 6.62908333,13.8006989 C6.59587613,13.879533 6.56421345,13.9583671 6.53486756,14.0372012 C6.43169714,13.9782087 6.32204446,13.9318995 6.20820141,13.8992415 C5.88378317,13.8062713 5.53540208,13.8960143 5.29303956,14.1349872 C5.05067705,14.3739602 4.9507359,14.7262694 5.03050429,15.0604679 C5.0733748,15.2362123 5.0733748,15.4200071 5.03050429,15.5957515 L5.01042552,15.6816807 C4.93360799,15.9779811 4.87225564,16.2782361 4.82662754,16.5811778 C4.77024886,16.9145712 4.88063293,17.2546892 5.12085875,17.4877701 C4.98185188,17.5941961 4.84516179,17.7037755 4.71310526,17.818085 C4.60544914,16.7072104 4.10495318,15.6744447 3.30527454,14.9130481 C4.38412233,13.710828 4.92393235,12.488111 4.90462584,11.2732774 C4.8848683,10.4356356 4.60347125,9.62634551 4.10147502,8.96343802 C5.25986563,8.68042357 6.1186192,8.09626284 6.65534018,7.23539438 C7.47084717,5.92044147 7.31098927,4.32405079 7.179705,3.60902544 C9.43316086,3.81005241 10.7560429,3.020923 11.4781064,2.30037926 C11.977581,1.81229474 12.3465575,1.20198671 12.5500039,0.527400179 L12.4727778,0 C12.4557881,0 12.2951579,0.0252269144 12.0264113,0.0882942004 C8.12031817,0.908957259 5.24982624,2.89163506 3.49061704,5.98508544 C2.44883775,7.8171901 1.79164414,10.049772 1.54529307,12.6213406 C1.34759441,14.6710274 1.40396942,16.9343546 1.71519036,19.3561384 C1.81249517,20.1184642 1.92987876,20.8484681 2.0557572,21.5335365 C1.69357934,22.4668409 1.49290013,23.4572542 1.46266121,24.4606469 C1.3618788,24.4007437 1.23881091,24.8845219 1.447216,24.980952 L1.447216,25.052691 C0.942584228,25.6358629 0.549652467,26.3105361 0.288825392,27.0416755 L0.250212372,27.0085652 L0.0980770716,27.7496058 C0.0331305461,28.0744304 0,28.4050874 0,28.7366089 C0.00136296612,29.3897148 0.1261769,30.0364156 0.367595953,30.6412409 L0.252529153,30.5434866 L0.250984632,31.1481442 L0.868792957,31.6755444 C0.888871728,31.6928879 0.908950498,31.709443 0.929801529,31.7244215 C1.18999725,32.11416 1.4866501,32.4771864 1.81558421,32.8083905 C2.51369156,33.508 3.31016975,34.0973379 4.17870106,34.556931 C4.19260175,34.5656028 4.20804695,34.5726978 4.22194764,34.5797929 L4.1447216,34.586888 L3.83581744,34.8509822 C3.31386574,35.2968788 4.87914125,37 11.464978,37 C18.0508147,37 19.6371735,35.2930667 19.1142173,34.8509822 L18.8053132,34.5876763 L18.8338868,34.5726978 L18.8423817,34.5679678 C18.8502179,34.564806 18.8577212,34.5608442 18.8647772,34.5561427 C18.8802224,34.5490476 18.8948954,34.5403758 18.9095683,34.5324924 C19.3687396,34.2811574 19.7936416,34.009032 20.1821645,33.7190362 C21.0390979,33.0794157 21.7190554,32.3528594 22.1993976,31.570695 L22.6913275,31.1512976 L22.689783,30.55137 C22.9091254,29.9730188 23.0222183,29.3583664 23.0233995,28.7381855 C23.0242999,28.4378947 22.9984515,28.1381422 22.9461734,27.8426301 L22.7376631,27.0637491 C22.7237625,27.0227554 22.7090895,26.9817616 22.6936443,26.9407679 C22.7646923,26.8882118 22.834968,26.8338163 22.9044714,26.7775813 C22.9446289,26.7775813 22.9925091,26.7775813 23.0496563,26.7775813 C23.5369527,26.7775813 24.5864546,26.6987472 25.2714495,26.0838411 L25.6668469,25.7282993 L25.1579273,25.6210849 C24.8354199,25.5559077 24.5187439,25.4636202 24.211136,25.3451656 C24.2574716,25.2781566 24.303035,25.2111476 24.3470538,25.1449269 C25.1230696,25.3322862 25.1955306,24.8175475 24.6057611,24.7239528 Z M11.9530466,0.655111433 C11.7585466,1.12875703 11.4728212,1.55769082 11.1128272,1.91645715 C10.2332226,2.79309243 9.00610086,3.18726297 7.458491,3.09266204 C8.22877225,2.40806107 9.0859854,1.83264099 10.0069503,1.3819619 C10.6308542,1.07541731 11.2826628,0.831972329 11.9530466,0.655111433 Z M6.68700286,3.84552776 C6.79511931,4.54163293 6.87852344,5.88102442 6.21206271,6.95316828 C5.75334003,7.69184387 5.00656421,8.19086377 3.99026952,8.44155623 C4.33807053,7.41877701 4.80503298,6.44237812 5.38111051,5.533366 C5.76488214,4.93113563 6.20201478,4.36615095 6.68700286,3.84552776 Z M3.71534481,9.32686325 C4.13045549,9.89293334 4.36306861,10.5766546 4.38103328,11.2835258 C4.39879527,12.3154643 3.94161711,13.3718413 3.02185497,14.4305834 C3.05377507,12.5695729 3.28493835,10.8683328 3.71534481,9.32686325 Z M3.33539269,19.2599608 C3.15501681,17.9757137 3.05057257,16.6815425 3.02262723,15.3844761 C4.13622674,16.5094388 4.20573017,17.9071675 4.20341339,18.2808412 C3.89246715,18.5862746 3.60244408,18.9131547 3.33539269,19.2591725 L3.33539269,19.2599608 Z"/><g transform="translate(.532 2.825)"><path fill="#000" d="M3.76879712 31.799578 3.61495096 31.813453 3.68572019 31.7548697C3.71033558 31.771828 3.73956635 31.785703 3.76879712 31.799578ZM1.13831184 32.3401159C1.00677076 32.2816153.881727478 32.2089384.765310063 32.1233221L.765310063 32.1233221C.881926403 32.2086218 1.00693594 32.2812791 1.13831184 32.3401159L1.13831184 32.3401159Z"/><polygon fill="#000" points="18.581 32.026 18.271 31.762 18.27 31.761 18.271 31.761"/><path fill="#D32F2F" d="M20.9475635,19.0037499 C21.0426441,19.3146132 21.194056,19.6044889 21.39393,19.8583117 C21.1529848,19.8717135 20.949108,19.8677718 20.8124179,19.8583117 C20.7696862,19.6780443 20.720519,19.4967259 20.6649162,19.3143563 C20.7521231,19.2043977 20.8465569,19.1006227 20.9475635,19.0037499 Z"/><path fill="#CDAB89" d="M16.1325199,11.7328802 C16.2215506,11.6660939 16.3221762,11.617141 16.4290679,11.5886138 C16.574723,11.5466277 16.7312627,11.5867814 16.8401748,11.6940661 C16.9490869,11.8013507 16.9939771,11.9596169 16.9580663,12.1097072 C16.8952657,12.3685776 16.8952657,12.6391779 16.9580663,12.8980483 L16.9796896,12.9863425 C17.0517498,13.2642389 17.1094911,13.5458002 17.1526759,13.8298675 C17.2036451,14.2074828 16.9480269,14.3856479 16.7132597,14.4242766 C16.4784925,14.4629054 16.1811723,14.3730345 16.1155302,13.9985725 C16.1155302,13.9851707 16.1108966,13.9701922 16.1085798,13.956002 C16.2989819,13.2284576 16.3072141,12.4637319 16.1325199,11.7320919 L16.1325199,11.7328802 Z"/><path fill="#FF9522" d="M20.5282261,21.8938083 C20.5282261,22.0254613 20.5282261,22.1618443 20.5181867,22.3100524 C20.4801864,23.080573 20.333758,23.8415009 20.0834041,24.5694379 C19.9286054,25.0189721 19.7363826,25.4541493 19.5088424,25.8702007 L18.330373,25.186709 L16.0251757,23.8465292 C16.133857,22.8997448 16.0628007,21.9404518 15.8158931,21.0211148 C15.806626,20.9832744 15.7958143,20.9422806 15.785775,20.908382 C15.7757356,20.8744833 15.7610626,20.8177228 15.7471619,20.7712106 L15.7471619,20.7712106 L15.7417561,20.7712106 C13.4249749,20.0096732 11.6943393,19.0526271 10.5027415,18.2390591 C10.6630617,18.260011 10.8245485,18.2702812 10.9861765,18.2698044 C12.3808788,18.2698044 12.8504132,17.5776409 12.9623909,17.3647889 C14.2752336,16.8641923 15.3316858,15.8803426 15.8684068,14.6505305 L15.8684068,14.6505305 C16.0655311,14.8555253 16.3361247,14.9694338 16.6174994,14.965867 C16.6767075,14.965515 16.7358123,14.9607725 16.7943471,14.9516768 C16.8206039,14.9477351 16.8460885,14.9414284 16.8715731,14.9351217 C17.1032512,15.1038267 17.3261771,15.2822545 17.5403506,15.4704052 L17.5403506,15.4704052 C18.7466214,16.5299357 19.650166,17.8779989 20.1251062,19.3474667 C20.2126675,19.6167803 20.285882,19.8907355 20.3444281,20.1681297 C20.4663472,20.7349283 20.5279702,21.3135064 20.5282261,21.8938083 L20.5282261,21.8938083 Z"/><path fill="#FCCFAA" d="M19.2663526,26.3432054 C19.2509074,26.3936592 19.2331454,26.4433247 19.2138389,26.4929902 C19.0286909,26.9578644 18.6819052,27.3365759 18.2400185,27.5564623 C18.3584201,27.3492625 18.4461213,27.1253111 18.5002703,26.8918907 L17.9867171,26.7949248 C17.9867171,26.7988665 17.8986794,27.2269357 17.4770253,27.7630076 C17.1798814,27.7814025 16.8824774,27.7315663 16.6066878,27.6171645 L16.5927871,27.6108578 C16.9846055,27.3191178 17.314983,26.9499582 17.5642907,26.5253121 L17.5171828,26.4992969 L17.1047957,26.2722547 C16.9782256,26.4869287 16.8250869,26.6840602 16.6491621,26.8587804 C16.4820553,27.028936 16.2980361,27.1808549 16.1000849,27.3120765 C15.8811707,27.1311776 15.7019871,26.9052873 15.5741756,26.6490817 C16.286972,26.3195551 16.6337169,26.0247156 16.6491621,26.0105254 L16.3132288,25.6037414 C16.0299868,25.8191182 15.7234502,26.0005744 15.3996448,26.1445434 C15.2703092,25.510524 15.4421078,24.8514028 15.863001,24.3668343 L18.1597035,25.7007074 L19.2663526,26.3432054 Z"/><path fill="#D32F2F" d="M15.4845934,23.9364001 L15.4668314,24.0215409 C15.3417618,24.1661822 15.2332058,24.3248694 15.1432543,24.4945455 C14.7843823,24.5568335 14.4170083,24.5463864 14.0620897,24.4638002 C13.0898139,24.2312396 12.5106186,23.4831039 12.2943857,23.1512123 C13.3114526,22.094047 14.6706309,21.6076405 15.3695266,21.416862 C15.6954205,22.8571611 15.4869102,23.9245749 15.4845934,23.9364001 Z"/><path fill="#FCCFAA" d="M11.9121168 15.5886564 9.98146575 15.5886564C10.2753634 15.4283339 10.6035236 15.3446532 10.9367519 15.3450575L10.9568306 15.3450575C11.2900394 15.344816 11.6181614 15.4284869 11.9121168 15.5886564L11.9121168 15.5886564ZM12.1623291 17.0549708C11.8063502 17.1392088 11.4426672 17.1849222 11.0773033 17.1913538L10.8162792 17.1913538C10.4490101 17.1795965 10.0840018 17.1280655 9.72739208 17.0376273 9.49542269 16.9778459 9.34617878 16.7476105 9.38296394 16.5062854 9.41426581 16.2788561 9.50406615 16.0639614 9.64321569 15.883496 9.97362568 16.2651726 10.4485992 16.4837546 10.9475635 16.4837546 11.4465278 16.4837546 11.9215014 16.2651726 12.2519113 15.883496 12.3952506 16.069777 12.4860388 16.2924783 12.5144799 16.5275706 12.5484826 16.7699096 12.3957241 16.9986891 12.1623291 17.0549708Z"/><path fill="#FCCFAA" d="M15.735578,12.7766438 L15.735578,12.795564 C15.735578,14.5299143 14.6405128,16.0395875 13.0566067,16.7530362 C13.0434783,16.2224826 12.8851649,15.7873184 12.5816665,15.4554268 C12.3180484,15.1801243 11.9833039,14.9868504 11.616341,14.8980696 C12.1685072,14.6560489 11.7476253,14.0915967 11.7476253,14.0915967 C11.9020774,14.727788 11.1066492,14.8011037 10.9684145,14.8121405 C10.9550399,14.8129306 10.9416317,14.8129306 10.928257,14.8121405 C10.7900224,14.8034687 9.99536644,14.727788 10.1490463,14.0915967 C10.1490463,14.0915967 9.72816434,14.6560489 10.2803305,14.8980696 C9.91319516,14.9864011 9.57833479,15.1797419 9.31500502,15.4554268 C9.01845702,15.779435 8.8609159,16.2027741 8.84083713,16.7167725 C7.29631632,15.9891337 6.23986408,14.5094175 6.23986408,12.7963523 L6.23986408,12.7774321 C6.24855591,11.7340874 6.93161813,10.8221536 7.91566916,10.5401202 C7.9928952,10.5180466 8.07012124,10.4967614 8.14734729,10.4770529 L8.14734729,10.4770529 C9.07449337,10.2352933 10.0305661,10.1291218 10.9869488,10.1617165 C12.0241369,10.1270712 13.0604098,10.2546833 14.059773,10.5401202 C15.0433986,10.8223018 15.7262871,11.7336824 15.735578,12.7766438 L15.735578,12.7766438 Z"/><path fill="#FFE9D9" d="M4.80345973,13.8306558 C4.84727216,13.5461238 4.90526697,13.2640572 4.97721832,12.9855542 L4.99806935,12.8988367 C5.06086992,12.6399663 5.06086992,12.369366 4.99806935,12.1104956 C4.96215847,11.9604052 5.00704872,11.802139 5.11596083,11.6948544 C5.22487293,11.5875698 5.38141261,11.5474161 5.52706773,11.5894021 C5.63915074,11.6208168 5.74410295,11.6743857 5.83597189,11.7470704 C5.75533523,12.0915754 5.7143855,12.4445148 5.71395475,12.7987173 C5.71395507,13.1776983 5.76092096,13.5551568 5.85373388,13.9221034 L5.85373388,13.9221034 C5.84910032,13.9496953 5.84523901,13.9764989 5.84060545,14.0009375 C5.77419106,14.3753995 5.4768708,14.4636937 5.2428759,14.4258533 C5.00888099,14.388013 4.75249054,14.2082712 4.80345973,13.8306558 Z"/><path fill="#FF9522" d="M14.6744922,25.0653045 L14.7903313,25.0653045 C13.5472774,25.3875292 12.2694495,25.548829 10.9869488,25.5454576 C10.590007,25.5454576 10.1953819,25.5296374 9.80539038,25.5004687 C9.22828401,25.4572848 8.65407092,25.3804274 8.08556645,25.2702731 L8.08556645,25.2702731 C7.70870337,25.1972202 7.3382758,25.1081377 6.97428373,25.0030255 C6.94082696,24.8481906 6.89378673,24.6967437 6.83373233,24.5505177 C6.74469497,24.3356539 6.62753138,24.1341052 6.48544289,23.9513785 C6.34899705,22.950874 6.4280622,21.9320257 6.71712101,20.9659309 L6.21746853,20.8129927 C5.96917805,21.6530265 5.86339916,22.5302096 5.90470307,23.4066348 C5.76385942,23.3119778 5.61437406,23.2314546 5.45833655,23.1661908 C5.06079677,23.0012379 4.62851689,22.9428889 4.20264113,22.9966975 C3.945221,22.0722362 3.71585965,21.170374 3.51455711,20.2911109 C3.27052282,19.2200182 3.06999253,18.1820358 2.91296625,17.1771637 C3.50839141,16.3062308 4.24733507,15.5473657 5.09691868,14.9343333 C5.11854197,14.9390634 5.139393,14.9445818 5.16101629,14.9477351 C5.21949003,14.9574501 5.27862133,14.9624584 5.33786393,14.9627136 C5.62504561,14.9668477 5.90084241,14.8482295 6.09854043,14.6355521 C6.51379406,15.5737876 7.1987086,16.3609453 8.06239864,16.8925725 C8.30952197,17.1716453 10.373774,19.3931904 14.8289443,21.0163847 C13.9879527,21.2930924 12.7330296,21.855968 11.7777435,22.9312652 L11.6541818,23.0692249 L11.7399027,23.2347765 C11.7514866,23.2584267 12.7129508,25.0653045 14.6744922,25.0653045 Z"/><path fill="#FCCFAA" d="M4.84052823,27.225359 C5.16082747,27.2246507 5.48019154,27.1900414 5.79349757,27.1220863 C5.27170126,27.5687026 4.56305573,27.7133878 3.9131234,27.5060048 C3.26319107,27.2986219 2.76141277,26.7677101 2.58166654,26.0972429 L2.58938914,26.0925129 L2.57239941,26.0633443 C2.3841338,25.3164356 2.62420075,24.5249728 3.19298949,24.0173569 C3.76177823,23.509741 4.56221777,23.3726031 5.26218241,23.6628457 C5.33977542,23.6951091 5.41534325,23.7322317 5.48845471,23.7740018 C5.31160707,23.9923723 4.90617036,24.3581625 4.06440652,24.5899348 L4.20032435,25.1039332 C5.17955054,24.8343205 5.67456946,24.3889078 5.90779211,24.0924916 C6.09809997,24.2826457 6.24932627,24.5096524 6.3526141,24.7602165 L6.38427678,24.8390506 C5.80306806,25.3322204 5.07903535,25.6164505 4.32388601,25.6478885 L4.34937061,26.1808071 C5.12579862,26.1476345 5.87579064,25.8834803 6.50706618,25.4208463 C6.527054,25.7287091 6.47792563,26.037167 6.36342575,26.3227085 C6.35338636,26.3487237 6.34180246,26.3731623 6.33099081,26.4015426 C5.72024231,26.646559 5.06063908,26.7376895 4.4080624,26.6672135 L4.34859835,27.1969787 C4.51188557,27.216306 4.67614756,27.2257825 4.84052823,27.225359 Z"/><path fill="#D32F2F" d="M3.40721291,3.42534197 C4.16705301,2.07791344 5.19833856,0.910419417 6.43292918,0 C6.3410302,0.0851408361 6.24835895,0.173435036 6.15645996,0.263305919 C6.14096372,0.274264403 6.12694332,0.287251529 6.1147579,0.301934632 C6.11339495,0.304418114 6.11184581,0.306790218 6.11012433,0.309029701 C5.47151349,0.941649029 4.90399926,1.64499079 4.41810178,2.40601696 C3.74881989,3.4646844 3.22205059,4.61042725 2.85195768,5.81243874 C2.84732412,5.82584054 2.8125724,5.93778497 2.80793884,5.9535518 C2.390139,7.35535381 2.13102963,8.80140138 2.03567843,10.2634125 C1.77388215,13.9236801 2.33222643,18.2485192 3.692177,23.120467 C3.51827822,23.1807493 3.3512722,23.260044 3.19406904,23.3569694 C2.50007136,21.1023791 1.99829363,18.7907672 1.69433933,16.4479482 C1.21862692,12.7198832 1.12904471,7.43169131 3.40721291,3.42534197 Z"/><path fill="#F6BC01" d="M1.72600201,19.755039 C2.0023387,21.0886673 2.34645971,22.4067157 2.75696965,23.7038394 C2.40242186,24.0533964 2.15573169,24.5011496 2.04726234,24.9919888 C1.70157684,24.1395778 1.50149911,23.2330121 1.45571087,22.3116291 C1.44876052,22.1618443 1.44567025,22.0254613 1.44567025,21.8938083 C1.44527755,21.1713145 1.53955706,20.4520132 1.72600201,19.755039 L1.72600201,19.755039 Z"/><path fill="#FF9522" d="M5.54946328,32.0011292 C4.61254709,31.667622 3.72051521,31.2149674 2.894432,30.6538543 C1.05799676,29.3830485 0,27.7054587 0,25.9088294 C0,24.9060596 0.34211136,23.9119615 0.993126882,23.0022159 C1.13960851,24.1576581 1.51199854,25.2712824 2.08819214,26.2769847 C2.18996906,26.6329136 2.36565219,26.9622887 2.60328983,27.2427025 L2.60328983,27.2427025 C2.86302335,27.5500227 3.19076289,27.7897306 3.55934821,27.9419611 C3.76070307,28.0252106 3.97172062,28.0816468 4.18719592,28.1098777 L5.54946328,32.0011292 Z"/><path fill="#D32F2F" d="M7.24303035,33.4579836 L6.62522202,33.4579836 L4.74476794,28.1193378 C4.93338732,28.1001291 5.11934607,28.0596776 5.29925091,27.9987216 L7.24303035,33.4579836 Z"/><path fill="#FF9522" d="M14.394934,32.5774066 C13.273291,32.8100491 12.131509,32.9265256 10.9869488,32.9250786 C10.4154761,32.9250786 9.84940922,32.8966847 9.29183721,32.8407125 C8.68086594,32.7803463 8.07368932,32.6850703 7.47316395,32.555333 L5.77419106,27.7803511 C6.54588855,27.3233255 7.02322202,26.4837168 7.02911422,25.5729961 C7.31176153,25.6478885 7.59672562,25.7133208 7.88555101,25.7716581 L7.91953047,25.8236886 C9.59533555,28.4094473 12.1074986,29.5754038 13.9794579,30.1004389 L14.394934,32.5774066 Z"/><path fill="#FCCFAA" d="M17.0947564,31.73467 C16.5692363,31.9598578 16.0304339,32.1512727 15.4815044,32.3077939 C15.2920431,32.36035 15.1000077,32.4113294 14.9053981,32.4607321 L14.5192679,30.1571995 L14.5192679,30.1571995 L14.510773,30.1004389 C14.9679512,30.0255465 15.9556723,29.9427707 16.159549,30.5923637 C16.3302185,31.1308007 16.6599737,31.533643 17.0947564,31.73467 Z"/><path fill="#FF9522" d="M21.9738976,25.9088294 C21.9738976,27.9663996 20.5591165,29.9128137 18.0917445,31.2522052 C17.8604272,31.3614766 17.5951007,31.368041 17.3588694,31.2703371 C17.1271913,31.1796778 16.8252375,30.960519 16.6592015,30.4283888 C16.2784771,29.2151319 14.5872268,29.5288916 14.2165418,29.6132441 L14.2165418,29.6132441 C12.5175689,29.1496996 10.2239555,28.1319513 8.61610935,25.9001577 C9.40209415,26.0184787 10.195553,26.0775014 10.9900378,26.0767461 C11.1514403,26.0767461 11.3120704,26.0767461 11.4719283,26.0688627 C12.6083351,26.0375971 13.7380668,25.8805873 14.8413005,25.6005881 C14.7824198,26.8548347 15.6176456,27.9698206 16.8188069,28.2404633 C18.0199682,28.5111059 19.2373574,27.8586101 19.7011352,26.6955938 C19.7312534,26.6167597 19.756738,26.5426556 19.7783613,26.4646099 L19.8316472,26.3731623 C20.1080481,25.9006646 20.3407314,25.4029106 20.5266816,24.886351 C20.94476,24.7863063 21.3464025,24.6248532 21.7190517,24.4070397 C21.8867444,24.8892795 21.9729203,25.3971084 21.9738976,25.9088294 Z"/><path fill="#D32F2F" d="M23.9107267 23.1630375C23.6122819 23.2840602 23.2983831 23.3607841 22.9786084 23.390868 23.1075759 23.2536967 23.2334543 23.1078536 23.3562437 22.9557038 23.5357592 23.0388053 23.721102 23.1081092 23.9107267 23.1630375L23.9107267 23.1630375ZM26.7680902 18.6174628C26.2257024 19.1959094 25.4898158 19.5446352 24.7069272 19.5942174L24.528535 19.6068309 24.528535 19.6068309 24.4760213 19.7786892C24.1520807 20.7371158 23.6830366 21.6378123 23.0859526 22.4480121 22.8240578 22.7987537 22.5274915 23.1210442 22.2009422 23.4097882L22.1283497 23.4712788C21.9945583 23.5847966 21.8542743 23.6900945 21.70824 23.7866152 21.4031645 23.9939955 21.0719316 24.1581543 20.723608 24.2745984 20.9021327 23.6419095 21.0091434 22.9904432 21.0425515 22.3329143 21.0502742 22.1752461 21.0533632 22.0309797 21.0533632 21.8898666 21.0527441 21.467699 21.0220299 21.0461371 20.9614642 20.6285209L20.9614642 20.6285209C20.9514248 20.5496868 20.9390687 20.4755827 20.9259402 20.399902 21.3061751 20.4093764 21.6864547 20.3829863 22.0619353 20.3210679 23.0226272 20.1586696 23.7331068 19.7692291 24.172523 19.1645715L24.2057302 19.1180594 24.2188586 19.0620872C24.3111382 18.5631609 24.3422676 18.0544548 24.3115298 17.547684 25.0226801 18.1208351 25.8706455 18.4901057 26.7680902 18.6174628Z"/><path fill="#000" d="M23.8545604,18.2926663 C23.8441216,18.4916097 23.7998514,18.6897079 23.7222527,18.8847104 C23.7868084,18.688704 23.8309733,18.4910768 23.8545604,18.2926663 Z"/><path fill="#FFF" d="M9.90501197,4.63465718 L10.9861765,4.29094047 L10.9861765,5.83451229 C10.752953,5.84712107 10.5216101,5.88410365 10.2957757,5.94488004 L9.90501197,4.63465718 Z"/><path fill="#FFE9D9" d="M8.83929261,16.7159841 C7.2947718,15.9883453 6.23831956,14.5086291 6.23831956,12.795564 L6.23831956,12.7766438 C6.24701138,11.733299 6.9300736,10.8213652 7.91412464,10.5393318 C7.99135068,10.5172583 8.06857672,10.4959731 8.14580276,10.4762645 L8.14580276,10.4762645 C8.14580276,10.4762645 7.04764847,11.5011079 7.32488995,13.2464951 C7.60213144,14.9918822 8.21453394,15.9213363 8.83929261,16.7159841 Z"/><path fill="#CDAB89" d="M13.134605,16.7159841 C14.6791258,15.9883453 15.735578,14.5086291 15.735578,12.795564 L15.735578,12.7766438 C15.7266289,11.7333892 15.0436713,10.8215951 14.059773,10.5393318 C13.9825469,10.5172583 13.9053209,10.4959731 13.8280948,10.4762645 L13.8280948,10.4762645 C13.8280948,10.4762645 14.9270214,11.5011079 14.6497799,13.2464951 C14.3725384,14.9918822 13.7585914,15.9213363 13.134605,16.7159841 Z"/><path fill="#FFE9D9" d="M4.5269905,27.5982443 C4.26222925,27.601196 3.99959421,27.54972 3.75473009,27.4468829 C3.17915343,27.2080007 2.74507961,26.7095356 2.58012202,26.0980313 L2.58784462,26.0933012 L2.57085489,26.0641326 C2.4156296,25.4519465 2.54703056,24.8008879 2.9266631,24.3011928 C3.30629565,23.8014976 3.89131185,23.5095649 4.51077303,23.5106926 L4.5269905,23.5106926 C3.67946719,23.8169404 3.11295001,24.6351207 3.11295001,25.5528934 C3.11295001,26.4706662 3.67946719,27.2888464 4.5269905,27.595091 L4.5269905,27.5982443 Z"/><path fill="#F6BC01" d="M2.894432 30.6538543C1.05799676 29.3830485 0 27.7054587 0 25.9088294 0 24.9060596.34211136 23.9119615.993126882 23.0022159 1.13960851 24.1576581 1.51199854 25.2712824 2.08819214 26.2769847 2.18996906 26.6329136 2.36565219 26.9622887 2.60328983 27.2427025L2.60328983 27.2427025C2.60328983 27.2427025 1.64954823 28.9447309 2.894432 30.6538543ZM8.0631709 16.8957259C8.0631709 16.8957259 4.96563441 16.4487365 3.92694417 19.0037499 3.75623733 19.4220245 3.61859309 19.8535733 3.51532937 20.2942643 3.27129508 19.2231715 3.0707648 18.1851891 2.91373851 17.180317 3.50916367 16.3093842 4.24810733 15.5505191 5.09769094 14.9374867 5.11931423 14.9422167 5.14016526 14.9477351 5.16178856 14.9508885 5.22026229 14.9606035 5.27939359 14.9656118 5.33863619 14.965867 5.62581787 14.9700011 5.90161467 14.8513828 6.09931269 14.6387054 6.51456632 15.576941 7.19948086 16.3640987 8.0631709 16.8957259Z"/><path fill="#F17400" d="M9.80539038 25.4981037C9.22828401 25.4549198 8.65407092 25.3780623 8.08556645 25.2679081L8.08556645 25.2679081C7.70870337 25.1964319 7.3382758 25.1081377 6.97428373 25.0030255 6.94082696 24.8481906 6.89378673 24.6967437 6.83373233 24.5505177 6.74469497 24.3356539 6.62753138 24.1341052 6.48544289 23.9513785 6.34899705 22.950874 6.4280622 21.9320257 6.71712101 20.9659309 6.71712101 20.9659309 7.12950807 24.4685303 9.80539038 25.4981037ZM14.1632558 19.6099842C14.6474631 20.0443602 15.2181636 20.499233 15.7425284 20.7735757 13.4257472 20.0120382 11.6951116 19.0549921 10.5035138 18.2414241 10.663834 18.262376 10.8253208 18.2726462 10.9869488 18.2721694 12.3816511 18.2721694 12.8511854 17.580006 12.9631632 17.3671539 14.2760059 16.8665573 15.3324581 15.8827076 15.8691791 14.6528956 15.8498726 14.7238463 15.3571704 16.5275706 14.1238706 17.6990455 13.8651332 17.9493946 13.72189 18.2995723 13.7293889 18.6634104 13.7368877 19.0272484 13.8944324 19.3709659 14.1632558 19.6099842L14.1632558 19.6099842ZM14.2134528 29.6124558C12.5144799 29.1489112 10.2208665 28.1311629 8.61302031 25.8993693 9.39900511 26.0176904 10.192464 26.0767131 10.9869488 26.0759577 11.1483512 26.0759577 11.3089814 26.0759577 11.4688393 26.0680743 11.5066801 26.6459283 11.8101784 28.9447309 14.2134528 29.6124558Z"/><path fill="#CDAB89" d="M16.6514789 26.8603571C16.4843721 27.0305127 16.3003529 27.1824315 16.1024017 27.3136532 15.8834875 27.1327542 15.7043039 26.906864 15.5764924 26.6506584 15.9103627 26.816333 16.2812914 26.8886904 16.6514789 26.8603571ZM18.1597035 25.7022841 19.2663526 26.3432054C19.2509074 26.3936592 19.2331454 26.4433247 19.2138389 26.4929902 19.0286909 26.9578644 18.6819052 27.3365759 18.2400185 27.5564623 18.3584201 27.3492625 18.4461213 27.1253111 18.5002703 26.8918907L17.9867171 26.7949248C17.9867171 26.7988665 17.8986794 27.2269357 17.4770253 27.7630076 17.1798814 27.7814025 16.8824774 27.7315663 16.6066878 27.6171645L16.5927871 27.6108578C16.9846055 27.3191178 17.314983 26.9499582 17.5642907 26.5253121L17.5171828 26.4992969C17.7856116 26.2845124 18.0048872 26.0125126 18.1597035 25.7022841Z"/><path fill="#F17400" d="M20.5282261,21.89302 C20.5282261,22.0254613 20.5282261,22.1618443 20.5174145,22.3100524 C20.4793502,23.080565 20.3329236,23.8414836 20.0826319,24.5694379 C19.9283934,25.0190733 19.7364175,25.4542767 19.5088424,25.8702007 L18.3311453,25.186709 C20.8255464,19.4318192 17.5998147,15.5586995 17.5411229,15.4680402 C18.7473936,16.528359 19.6517106,17.8764222 20.1266507,19.34589 C20.3919641,20.1667193 20.5272662,21.0255091 20.5274539,21.8898666 L20.5282261,21.89302 Z"/><path fill="#9A0007" d="M15.3733879 21.414497C15.6954205 22.8571611 15.4869102 23.9245749 15.4845934 23.9371884L15.4668314 24.0223292C15.3417618 24.1669706 15.2332058 24.3256577 15.1432543 24.4953339 14.7843823 24.5576219 14.4170083 24.5471748 14.0620897 24.4645886 15.5301568 24.2990369 15.3733879 21.414497 15.3733879 21.414497ZM24.528535 19.6084076 24.4760213 19.7802659C24.1520807 20.7386925 23.6830366 21.639389 23.0859526 22.4495888 22.8240578 22.8003303 22.5274915 23.1226208 22.2009422 23.4113649L22.1283497 23.4728555C21.9945583 23.5863733 21.8542743 23.6916712 21.70824 23.7881919 21.4031645 23.9955721 21.0719316 24.159731 20.723608 24.2761751 20.9021327 23.6434862 21.0091434 22.9920199 21.0425515 22.334491 21.0502742 22.1768228 21.0533632 22.0325564 21.0533632 21.8914433 21.0527441 21.4692757 21.0220299 21.0477138 20.9614642 20.6300976 21.0386902 20.8934035 21.2703684 21.3608898 21.9769866 21.9269187 23.0612403 22.7956705 24.4852884 19.6935484 24.528535 19.6084076Z"/><circle cx="14.101" cy="23.161" r="1" fill="#000"/><path fill="#2E0000" d="M21.5097691 21.4744123C21.4954358 21.4744268 21.4815319 21.4694174 21.4703838 21.4602207 21.4565653 21.4495971 21.44754 21.4337227 21.4453585 21.4162044 21.443177 21.3986862 21.4480246 21.3810116 21.4587999 21.3671965 21.5404357 21.2764366 21.5788444 21.1536219 21.5638273 21.0313632 21.5323995 20.9183059 21.4600785 20.8216546 21.3614951 20.7609622 21.3463775 20.7523472 21.3352608 20.7379205 21.3306194 20.7208932 21.325978 20.7038659 21.3281971 20.685651 21.3367828 20.670303 21.3546491 20.6385196 21.3942121 20.6272815 21.4255927 20.6450761 21.5572902 20.7246266 21.6527967 20.8541479 21.6912503 21.0053479 21.7152828 21.1656608 21.6676736 21.3285307 21.5615105 21.449184 21.5489632 21.4652447 21.5298925 21.4745427 21.5097691 21.4744123ZM21.6302417 22.5315766C21.6156947 22.5314635 21.6015864 22.5264781 21.5900842 22.5173861 21.5765621 22.5065169 21.5678256 22.4906076 21.5657978 22.4731607 21.5637701 22.4557138 21.5686173 22.4381593 21.5792725 22.4243619 21.6607825 22.3338446 21.6991893 22.2113243 21.6842999 22.0893169 21.6532144 21.975655 21.5804917 21.8785541 21.4811955 21.8181276 21.4533498 21.798284 21.4449278 21.7600357 21.4617764 21.7299367 21.478625 21.6998377 21.5151811 21.6878262 21.5460653 21.7022414 21.6775352 21.7820514 21.7729622 21.9114648 21.8117229 22.0625133 21.8358507 22.2225915 21.7882149 22.3852629 21.6819832 22.505561 21.6696686 22.5220133 21.6505246 22.5316388 21.6302417 22.5315766ZM22.2828018 21.5666468C22.2681826 21.5669824 22.2539316 21.5619466 22.2426442 21.5524566 22.2288257 21.541833 22.2198004 21.5259586 22.2176189 21.5084403 22.2154374 21.4909221 22.220285 21.4732475 22.2310603 21.4594324 22.3129771 21.3688392 22.3514284 21.2458882 22.3360877 21.1235991 22.3046599 21.0105418 22.2323389 20.9138905 22.1337555 20.8531981 22.1026204 20.8349118 22.0919021 20.7943223 22.1098154 20.7625389 22.1277288 20.7307555 22.1674903 20.719814 22.1986254 20.7381003 22.3301042 20.8175317 22.4255698 20.9467142 22.464283 21.0975838 22.4876638 21.257985 22.4398225 21.4206804 22.3337709 21.5414199 22.3215401 21.5574518 22.3027071 21.5667731 22.2828018 21.5666468L22.2828018 21.5666468ZM22.4635107 22.7562535C22.4489023 22.7565196 22.4346742 22.7514919 22.4233532 22.7420633 22.4098311 22.7311941 22.4010946 22.7152849 22.3990668 22.6978379 22.397039 22.680391 22.4018863 22.6628365 22.4125415 22.6490391 22.4952289 22.5594238 22.5348142 22.4370403 22.520658 22.3147825 22.4887471 22.2015647 22.4165961 22.1045784 22.3183257 22.0428048 22.3032081 22.0341898 22.2920914 22.0197631 22.28745 22.0027357 22.2828087 21.9857084 22.2850278 21.9674936 22.2936134 21.9521456 22.3114798 21.9203622 22.3510428 21.9091241 22.3824234 21.9269187 22.5138932 22.0067286 22.6093202 22.136142 22.6480809 22.2871905 22.6721135 22.4475033 22.6245042 22.6103733 22.5183412 22.7310265 22.5050549 22.7478854 22.4846838 22.757258 22.4635107 22.7562535ZM22.9739748 21.8267994C22.9594079 21.8267994 22.9452627 21.8218078 22.9338173 21.8126092 22.9199988 21.8019855 22.9109734 21.7861112 22.908792 21.7685929 22.9066105 21.7510746 22.9114581 21.7334 22.9222334 21.7195849 23.0038366 21.629123 23.0422575 21.5065575 23.0272608 21.38454 22.9960781 21.2711545 22.9237198 21.1741714 22.8249286 21.1133507 22.797083 21.0935071 22.7886609 21.0552588 22.8055095 21.0251598 22.8223581 20.9950607 22.8589142 20.9830493 22.8897984 20.9974645 23.0210432 21.0775305 23.116392 21.2068379 23.155456 21.3577364 23.1787151 21.5179936 23.1312025 21.6805329 23.0257163 21.8015724 23.0130967 21.8175401 22.9940727 21.8268154 22.9739748 21.8267994ZM21.7483976 23.5887416C21.7233924 23.5886701 21.7005989 23.5741024 21.6896134 23.5511718 21.6786279 23.5282412 21.6813587 23.5009309 21.6966561 23.4807389 21.7782269 23.3905753 21.8166602 23.2682588 21.8016835 23.1464823 21.7705008 23.0330968 21.6981425 22.9361137 21.5993513 22.875293 21.5683968 22.8564829 21.5577755 22.8159112 21.5754112 22.7838454 21.5839812 22.7685472 21.5981711 22.7573671 21.6148397 22.7527803 21.6315082 22.7481935 21.6492802 22.7505783 21.6642212 22.7594068 21.7954659 22.8394728 21.8908148 22.9687802 21.9298788 23.1196787 21.9532281 23.2797011 21.90569 23.4420388 21.800139 23.5627264 21.7876008 23.5788986 21.7685992 23.5884525 21.7483976 23.5887416Z"/><path fill="#FFF" d="M6.75496177,10.4762645 C6.75496177,10.4762645 7.16348753,7.23302936 9.90501197,6.38398602 C9.90501197,6.38398602 8.27322573,7.32999531 7.93034211,9.9149657 C7.51590836,10.0480541 7.12065093,10.236808 6.75496177,10.4762645 Z"/><path fill="#CDAB89" d="M15.4815044,32.3077939 C15.2920431,32.36035 15.1000077,32.4113294 14.9053981,32.4607321 L14.5192679,30.1571995 L15.4815044,32.3077939 Z"/><path fill="#F17400" d="M9.29183721,32.8407125 C8.68086594,32.7803463 8.07368932,32.6850703 7.47316395,32.555333 L5.77419106,27.7803511 C6.54588855,27.3233255 7.02322202,26.4837168 7.02911422,25.5729961 C7.20179554,26.032485 7.22880762,26.5357204 7.10634026,27.0117186 C6.86396794,27.8749439 6.97545648,28.8016423 7.41524442,29.5793455 L9.29183721,32.8407125 Z"/><circle cx="13.466" cy="14.426" r="1" fill="#FFB2AE"/><circle cx="8.431" cy="14.426" r="1" fill="#FFB2AE"/><path fill="#000" d="M13.9485675 12.9414071C13.9485675 12.9414071 13.4512318 12.3249244 12.2951579 12.326498 12.2098564 12.326498 12.1407058 12.3970915 12.1407058 12.4841693L12.1407058 12.4841693C12.1426543 12.5670208 12.2071039 12.6341902 12.2882076 12.6378958 12.6218241 12.6449908 13.4465982 12.6891379 13.9485675 12.9414071ZM12.8465519 11.7770273C13.2811469 11.8926658 13.6755881 12.1296178 13.985636 12.4613074 13.985636 12.4613074 14.027338 11.7210551 12.9886478 11.3268846 12.9146787 11.2972123 12.8309731 11.3083155 12.7668889 11.3562998 12.7028047 11.4042842 12.6672871 11.4824517 12.6727933 11.5633869L12.6727933 11.5633869C12.6793537 11.6654681 12.7494649 11.7516716 12.8465519 11.7770273L12.8465519 11.7770273ZM7.9519654 12.9414071C7.9519654 12.9414071 8.44852884 12.3249244 9.60460267 12.326498 9.6899042 12.326498 9.75905475 12.3970915 9.75905475 12.4841693L9.75905475 12.4841693C9.75710632 12.5670208 9.69265669 12.6341902 9.61155302 12.6378958 9.27484748 12.6449908 8.45007336 12.6891379 7.9519654 12.9414071ZM9.0501197 11.7770273C8.61552464 11.8926658 8.22108348 12.1296178 7.9110356 12.4613074 7.9110356 12.4613074 7.86933354 11.7210551 8.90802379 11.3268846 8.98199283 11.2972123 9.06569847 11.3083155 9.12978268 11.3562998 9.19386689 11.4042842 9.22938445 11.4824517 9.22387829 11.5633869L9.22387829 11.5633869C9.2173179 11.6654681 9.14720669 11.7516716 9.0501197 11.7770273L9.0501197 11.7770273ZM10.9483358 16.9414497C10.6812899 16.9424117 10.4174192 16.8823433 10.1760754 16.7656496 10.1484169 16.7555284 10.1287808 16.730262 10.1254168 16.7004655 10.1220528 16.6706691 10.1355437 16.6415053 10.1602216 16.6252266 10.1848995 16.6089479 10.2164886 16.6083749 10.2417175 16.6237482 10.6896181 16.8370857 11.2070534 16.8370857 11.6549541 16.6237482 11.6801829 16.6083749 11.7117721 16.6089479 11.73645 16.6252266 11.7611279 16.6415053 11.7746188 16.6706691 11.7712547 16.7004655 11.7678907 16.730262 11.7482546 16.7555284 11.7205962 16.7656496 11.4792523 16.8823433 11.2153817 16.9424117 10.9483358 16.9414497L10.9483358 16.9414497Z"/></g></g></g></svg>