<svg xmlns="http://www.w3.org/2000/svg" width="220" height="220" viewBox="0 0 220 220"><defs><linearGradient id="a" x1="100%" x2="9.293%" y1="85.842%" y2="19.663%"><stop offset="0%" stop-color="#F6BC01"/><stop offset="28.823%" stop-color="#FF9522"/><stop offset="70.186%" stop-color="#F17400"/><stop offset="100%" stop-color="#D32F2F"/></linearGradient></defs><g fill="none" fill-rule="evenodd"><circle cx="110" cy="110" r="110" fill="url(#a)"/><g fill-rule="nonzero" transform="translate(43 38)"><path fill="#000" d="M134.881836,99.3771291 C134.424176,96.385439 133.807982,93.4201872 133.035861,90.4939095 L132.818157,89.6372058 C132.385762,87.9003107 132.385762,86.0838175 132.818157,84.3469223 C133.622692,81.0440308 132.61499,77.5620633 130.171057,75.2002466 C127.727123,72.83843 124.214068,71.9515412 120.94272,72.8705053 C119.845432,73.1762132 118.787038,73.6074972 117.788511,74.1558118 C117.477002,73.3221945 117.142419,72.4885771 116.776234,71.6705179 C115.553777,65.0166351 107.789647,30.0187576 78.9693652,22.5001412 L84.061848,6.19315984 L67.7184496,0.0823077969 L67.5022498,-5.68434189e-14 L67.4987384,-5.68434189e-14 L67.282037,0.0823077969 L50.9386386,6.19416359 L56.031623,22.5011449 C27.2108392,30.0197614 19.4472108,65.0176389 18.2242524,71.6715216 C17.8585688,72.4895808 17.5219794,73.3231982 17.211976,74.1568156 C16.2136263,73.6084962 15.1553982,73.177211 14.0582685,72.8715091 C10.7870256,71.952625 7.27411009,72.8394644 4.83021322,75.201142 C2.38631635,77.5628195 1.37851694,81.0446059 2.1828314,84.3474242 C2.61498084,86.0843494 2.61498084,87.9007825 2.1828314,89.6377077 L1.96462514,90.4944114 C1.19292097,93.4207569 0.576897904,96.3859953 0.119151924,99.3776309 C-0.410562595,103.17182 0.874597062,106.203156 3.00800222,108.26085 C4.554693,109.47112 6.29873327,110.404959 8.16318794,111.021173 C8.42052084,111.083406 8.67735212,111.145638 8.94220938,111.184785 C9.53248029,111.274426 10.12846,111.321223 10.7254813,111.324808 C13.5626066,111.359752 16.2909821,110.234169 18.2789294,108.208655 L18.2789294,108.231742 C23.6909464,120.386194 34.3128261,130.109556 47.5822751,135.057057 C48.7094233,137.156408 53.430203,143.974906 67.4345306,144 L67.4907124,144 L67.5097741,144 L67.5664576,144 C81.5702836,143.974906 86.2910633,137.156408 87.4182115,135.057057 C100.687661,130.109556 111.30954,120.386194 116.721557,108.231742 L116.721557,108.208655 C118.709692,110.234196 121.438231,111.359772 124.275507,111.324808 C124.872526,111.321181 125.468503,111.274384 126.058779,111.184785 C126.323636,111.145638 126.580467,111.084409 126.837299,111.021173 C128.701757,110.404968 130.445799,109.471129 131.992484,108.26085 C134.126391,106.202152 135.408541,103.171318 134.881836,99.3771291 Z"/><g transform="translate(5.082 5.82)"><path fill="#CDAB89" d="M0.243287445,1.58956549 C1.1409145,0.929916732 2.15461795,0.445197826 3.23145922,0.160722215 C4.70102647,-0.253145262 6.27971359,0.145186829 7.37736254,1.20681065 C8.4750115,2.26843447 8.92637281,3.83352407 8.56271481,5.31700456 C7.92791818,7.87708741 7.92791818,10.553578 8.56271481,13.1136608 L8.77991783,13.9829114 C9.50778152,16.7294997 10.0921289,19.512163 10.5305842,22.3195871 C11.0442467,26.0535506 8.46389496,27.8181495 6.09472671,28.1915458 C3.72555846,28.5649422 0.730363958,27.689669 0.0657126913,23.990335 C0.046149371,23.851817 0.0195633203,23.7072765 0,23.5687585 C1.91530787,16.3767534 1.99895057,8.81922879 0.243287445,1.58655423 L0.243287445,1.58956549 Z" transform="translate(114.061 71.963)"/><path fill="#FCCFAA" d="M25.5618541 2.41035432 6.10136658 2.41035432C10.4930812-.137674247 15.6638172.00134562911 15.7265202.00134562911L15.9271696.00134562911C15.9908758.00285125954 21.1616119-.137674247 25.5618541 2.41035432ZM28.0845191 16.9015453C24.4949883 17.7340818 20.8277757 18.1859229 17.1436068 18.2495864L14.5115878 18.2259982C10.808147 18.1098715 7.12749976 17.6006229 3.53154889 16.7068171 1.18736894 16.1232204-.321119392 13.8425617.0583071025 11.4556801.374383672 9.20808626 1.27993033 7.0843802 2.68280177 5.30066287 6.01329559 9.07392178 10.8021314 11.2357292 15.8335633 11.2372651 20.8649952 11.238801 25.6551487 9.07991774 28.9879432 5.3086929 30.4333902 7.1496326 31.3488503 9.35058786 31.6355126 11.6739965 31.9986687 14.0770963 30.4514453 16.3548211 28.0845191 16.9015453L28.0845191 16.9015453Z" transform="translate(46.185 109.252)"/><path fill="#FCCFAA" d="M95.7679708,25.9075042 L95.7679708,26.0947042 C95.7679708,43.2664193 84.7252289,58.1550968 68.7540352,65.2064659 C68.6216065,59.962857 67.0249386,55.6622746 63.964533,52.3820078 C61.0676568,49.288941 57.3932639,47.6914671 54.2305271,46.8734079 C59.7985491,44.4819649 55.5543118,38.9031023 55.5543118,38.9031023 C57.1038271,45.190615 49.0908918,45.9389133 47.6968798,46.0242324 C47.562063,46.0322848 47.4268863,46.0322848 47.2920695,46.0242324 C45.8980576,45.9389133 37.8851222,45.190615 39.4346375,38.9031023 C39.4346375,38.9031023 35.1909019,44.4819649 40.7584222,46.8734079 C37.5981935,47.683939 33.9057422,49.2824166 31.0088659,52.3820078 C28.0186877,55.5839819 26.4300457,59.7681288 26.2273898,64.8400959 C10.684081,57.6487031 0,42.9858702 0,26.0952061 L0,25.9080061 C0.0878334484,15.5966088 6.97576704,6.58405621 16.8986958,3.79681945 C17.6847399,3.57850303 18.4712857,3.36821665 19.2422812,3.17348845 L19.2503072,3.17348845 C28.5993257,0.783942158 38.2400972,-0.265415114 47.8839854,0.0568334561 C58.3426401,-0.285450619 68.7920504,0.97581396 78.869275,3.79681945 C88.7900432,6.58693029 95.6765731,15.5974417 95.7679708,25.9075042 Z" transform="translate(14.532 57.96)"/><path fill="#FFE9D9" d="M0.0654053466,22.3195871 C0.504044485,19.5078521 1.0885567,16.7208459 1.81657333,13.9698626 L2.02725524,13.1136608 C2.66419334,10.5541095 2.66643195,7.87761886 2.03377634,5.31700456 C1.67011834,3.83352407 2.12147965,2.26843447 3.21912861,1.20681065 C4.31677757,0.145186829 5.89546469,-0.253145262 7.36503194,0.160722215 C8.49964415,0.461807118 9.56403561,0.983102107 10.4976713,1.69495962 C8.79830613,8.76841574 8.85927964,16.150969 10.6752461,23.1953622 L10.6622038,23.1953622 C10.6160545,23.4653719 10.5769278,23.7353816 10.5307785,23.9983651 C9.85910447,27.6992047 6.86441159,28.5684553 4.50176444,28.1930514 C2.1391173,27.8176476 -0.446250723,26.0535506 0.0654053466,22.3195871 Z" transform="translate(0 71.963)"/><path fill="#FFF" d="M0,3.4022229 L10.9128214,0 L10.9128214,15.257055 C10.9128214,15.257055 6.69165879,15.4768771 3.94928258,16.3546596 L0,3.4022229 Z" transform="translate(51.502)"/><path fill="#FFE9D9" d="M26.228393,61.6671093 C10.6820745,54.4757165 0,39.8108761 0,22.9222196 L0,22.7315064 C0.0894395524,12.422903 6.97531979,3.41320997 16.8951844,0.625338505 C17.6852416,0.401501448 18.468276,0.197237586 19.2452909,0 L19.2518121,0 C19.2518121,0 8.17445815,10.0947502 10.972013,27.3803913 C13.7695678,44.6660324 19.9295055,53.8107297 26.228393,61.6671093 Z" transform="translate(14.532 61.136)"/><path fill="#CDAB89" d="M0,61.6671093 C15.5463185,54.4757165 26.228393,39.8108761 26.228393,22.9222196 L26.228393,22.7315064 C26.1389535,12.422903 19.2530733,3.41320997 9.33320866,0.625338505 C8.54315149,0.401501448 7.76011706,0.197237586 6.9831021,0 L6.976581,0 C6.976581,0 18.0539349,10.0927427 15.2583866,27.3798894 C12.4628383,44.6670361 6.29888752,53.8107297 0,61.6671093 Z" transform="translate(84.068 61.136)"/><path fill="#FFF" d="M0,40.4457503 C0,40.4457503 4.1133135,8.39589716 31.7567867,0 C31.7567867,0 15.3035327,9.38509635 11.8473461,34.9010153 C11.8473461,34.9010153 6.59785518,36.3263454 0,40.4457503 Z" transform="translate(19.745 20.688)"/><ellipse cx="87.416" cy="100.168" fill="#FFB2AE" rx="5.646" ry="5.649"/><ellipse cx="36.637" cy="100.168" fill="#FFB2AE" rx="5.646" ry="5.649"/><path fill="#000" d="M92.2452625 85.5167972C92.2452625 85.5167972 87.2325379 79.427024 75.5763104 79.444052 74.731909 79.4432505 74.0459382 80.1259767 74.0423448 80.970797L74.0423448 80.970797C74.0416311 81.7992276 74.7038208 82.4758099 75.5316659 82.4924875 78.9025764 82.5627503 87.2149811 83.0003869 92.2452625 85.5167972ZM81.1709184 73.988185C85.5513106 75.1311949 89.5265976 77.4730797 92.6505744 80.750975 92.6505744 80.750975 93.0739447 73.4371242 82.5985391 69.5360358 81.8578247 69.2532769 81.0245285 69.3633981 80.3825947 69.8288756 79.7406609 70.2943532 79.3767012 71.0523835 79.4147341 71.8446691L79.4147341 71.8446691C79.4689711 72.8664014 80.1801968 73.73449 81.1709184 73.988185L81.1709184 73.988185ZM31.8081466 85.5167972C31.8081466 85.5167972 36.8208712 79.427024 48.4765971 79.444052 49.3211121 79.4429746 50.0072445 80.1258616 50.0105632 80.970797L50.0105632 80.970797C50.01155 81.7991456 49.3495066 82.4758063 48.5217433 82.4924875 45.1513343 82.5627503 36.838428 83.0003869 31.8081466 85.5167972ZM42.8819891 73.988185C38.5017463 75.1312063 34.5266239 77.4730964 31.4028347 80.750975 31.4028347 80.750975 30.9789628 73.4371242 41.4543684 69.5360358 42.1950828 69.2532769 43.028379 69.3633981 43.6703128 69.8288756 44.3122466 70.2943532 44.6762063 71.0523835 44.6381734 71.8446691L44.6381734 71.8446691C44.584411 72.8665854 43.8729842 73.7349195 42.8819891 73.988185L42.8819891 73.988185Z"/><path fill="#000" d="M8.23865179,3.21718959 C5.54472253,3.22678675 2.88261011,2.63473613 0.446430825,1.48420897 C0.194815933,1.36542055 0.0256550888,1.12135281 0.00266955789,0.843943712 C-0.020315973,0.566534618 0.106365859,0.297929223 0.334995225,0.1393086 C0.56362459,-0.0193120224 0.859467241,-0.043849621 1.11108209,0.0749388822 C5.62505324,2.18756703 10.8432211,2.18756703 15.3571923,0.0749388822 C15.6088071,-0.0442081703 15.9048409,-0.0200019069 16.1337807,0.138439407 C16.3627204,0.296880722 16.4897847,0.565486082 16.4671095,0.843074449 C16.4444344,1.12066282 16.2754649,1.36506191 16.02385,1.48420897 C13.589988,2.63422951 10.9302711,3.22628096 8.23865179,3.21718959 L8.23865179,3.21718959 Z" transform="translate(53.791 121.811)"/></g></g></g></svg>